M48
; DRILL file {KiCad (6.0.0)} date Thu Jan 12 10:54:35 2023
; FORMAT={-:-/ absolute / metric / decimal}
; #@! TF.CreationDate,2023-01-12T10:54:35-06:00
; #@! TF.GenerationSoftware,Kicad,Pcbnew,(6.0.0)
; #@! TF.FileFunction,Plated,1,2,PTH
FMAT,2
METRIC
; #@! TA.AperFunction,Plated,PTH,ComponentDrill
T1C1.020
; #@! TA.AperFunction,Plated,PTH,ComponentDrill
T2C1.200
; #@! TA.AperFunction,Plated,PTH,ComponentDrill
T3C1.300
; #@! TA.AperFunction,Plated,PTH,ComponentDrill
T4C1.700
%
G90
G05
T1
X146.05Y-39.37
X146.05Y-41.91
X146.05Y-44.45
X146.05Y-46.99
X146.05Y-49.53
X146.05Y-52.07
X146.05Y-54.61
X146.05Y-57.15
X146.05Y-59.69
X146.05Y-62.23
X146.05Y-64.77
X146.05Y-67.31
X146.05Y-69.85
X146.05Y-72.39
X146.05Y-74.93
X146.05Y-77.47
X146.05Y-80.01
X146.05Y-82.55
X146.05Y-85.09
X146.05Y-87.63
X152.4Y-87.4
X154.94Y-87.4
X157.48Y-87.4
X163.83Y-39.37
X163.83Y-41.91
X163.83Y-44.45
X163.83Y-46.99
X163.83Y-49.53
X163.83Y-52.07
X163.83Y-54.61
X163.83Y-57.15
X163.83Y-59.69
X163.83Y-62.23
X163.83Y-64.77
X163.83Y-67.31
X163.83Y-69.85
X163.83Y-72.39
X163.83Y-74.93
X163.83Y-77.47
X163.83Y-80.01
X163.83Y-82.55
X163.83Y-85.09
X163.83Y-87.63
T2
X108.74Y-39.53
X108.74Y-113.03
X112.24Y-113.03
X120.932Y-39.53
X120.932Y-113.03
X124.432Y-113.03
X132.87Y-39.53
X132.87Y-113.03
X136.37Y-113.03
T3
X88.756Y-41.91
X88.756Y-46.91
X88.883Y-105.45
X88.883Y-110.45
X89.137Y-63.09
X89.137Y-68.09
X89.264Y-84.27
X89.264Y-89.27
X101.256Y-41.91
X101.256Y-46.91
X101.383Y-105.45
X101.383Y-110.45
X101.637Y-63.09
X101.637Y-68.09
X101.764Y-84.27
X101.764Y-89.27
T4
X106.29Y-44.88
X106.29Y-107.68
X114.69Y-43.68
X114.69Y-108.88
X118.482Y-44.88
X118.482Y-107.68
X126.882Y-43.68
X126.882Y-108.88
X130.42Y-44.88
X130.42Y-107.68
X138.82Y-43.68
X138.82Y-108.88
T0
M30
