%TF.GenerationSoftware,KiCad,Pcbnew,(6.0.0)*%
%TF.CreationDate,2023-01-12T10:54:33-06:00*%
%TF.ProjectId,deej,6465656a-2e6b-4696-9361-645f70636258,rev?*%
%TF.SameCoordinates,Original*%
%TF.FileFunction,Soldermask,Top*%
%TF.FilePolarity,Negative*%
%FSLAX46Y46*%
G04 Gerber Fmt 4.6, Leading zero omitted, Abs format (unit mm)*
G04 Created by KiCad (PCBNEW (6.0.0)) date 2023-01-12 10:54:33*
%MOMM*%
%LPD*%
G01*
G04 APERTURE LIST*
%ADD10C,3.200000*%
%ADD11O,3.048000X1.850000*%
%ADD12R,1.750000X1.750000*%
%ADD13C,1.750000*%
%ADD14C,2.700000*%
%ADD15O,1.800000X1.800000*%
%ADD16O,1.500000X1.500000*%
%ADD17O,1.700000X1.700000*%
%ADD18R,3.500000X1.700000*%
%ADD19R,1.700000X1.700000*%
%ADD20R,1.700000X3.500000*%
G04 APERTURE END LIST*
D10*
%TO.C,REF\u002A\u002A*%
X155194000Y-97282000D03*
%TD*%
%TO.C,REF\u002A\u002A*%
X155194000Y-54864000D03*
%TD*%
%TO.C,REF\u002A\u002A*%
X95123000Y-97282000D03*
%TD*%
%TO.C,REF\u002A\u002A*%
X95123000Y-54864000D03*
%TD*%
D11*
%TO.C,SW2*%
X101637000Y-63090000D03*
X89137000Y-63090000D03*
X89137000Y-68090000D03*
X101637000Y-68090000D03*
%TD*%
%TO.C,SW4*%
X101383000Y-105450000D03*
X88883000Y-105450000D03*
X101383000Y-110450000D03*
X88883000Y-110450000D03*
%TD*%
D12*
%TO.C,RV1*%
X132870000Y-113030000D03*
D13*
X136370000Y-113030000D03*
X132870000Y-39530000D03*
D14*
X138820000Y-43680000D03*
X130420000Y-44880000D03*
X130420000Y-107680000D03*
X138820000Y-108880000D03*
%TD*%
D11*
%TO.C,SW1*%
X88756000Y-41910000D03*
X101256000Y-41910000D03*
X88756000Y-46910000D03*
X101256000Y-46910000D03*
%TD*%
D15*
%TO.C,U1*%
X152215000Y-39500000D03*
D16*
X152515000Y-42530000D03*
D15*
X157665000Y-39500000D03*
D16*
X157365000Y-42530000D03*
D17*
X146050000Y-39370000D03*
D18*
X145150000Y-39370000D03*
X145150000Y-41910000D03*
D17*
X146050000Y-41910000D03*
D19*
X146050000Y-44450000D03*
D18*
X145150000Y-44450000D03*
X145150000Y-46990000D03*
D17*
X146050000Y-46990000D03*
D18*
X145150000Y-49530000D03*
D17*
X146050000Y-49530000D03*
X146050000Y-52070000D03*
D18*
X145150000Y-52070000D03*
D17*
X146050000Y-54610000D03*
D18*
X145150000Y-54610000D03*
D19*
X146050000Y-57150000D03*
D18*
X145150000Y-57150000D03*
X145150000Y-59690000D03*
D17*
X146050000Y-59690000D03*
X146050000Y-62230000D03*
D18*
X145150000Y-62230000D03*
X145150000Y-64770000D03*
D17*
X146050000Y-64770000D03*
X146050000Y-67310000D03*
D18*
X145150000Y-67310000D03*
X145150000Y-69850000D03*
D19*
X146050000Y-69850000D03*
D17*
X146050000Y-72390000D03*
D18*
X145150000Y-72390000D03*
X145150000Y-74930000D03*
D17*
X146050000Y-74930000D03*
X146050000Y-77470000D03*
D18*
X145150000Y-77470000D03*
D17*
X146050000Y-80010000D03*
D18*
X145150000Y-80010000D03*
X145150000Y-82550000D03*
D19*
X146050000Y-82550000D03*
D18*
X145150000Y-85090000D03*
D17*
X146050000Y-85090000D03*
X146050000Y-87630000D03*
D18*
X145150000Y-87630000D03*
D17*
X163830000Y-87630000D03*
D18*
X164730000Y-87630000D03*
X164730000Y-85090000D03*
D17*
X163830000Y-85090000D03*
D18*
X164730000Y-82550000D03*
D19*
X163830000Y-82550000D03*
D17*
X163830000Y-80010000D03*
D18*
X164730000Y-80010000D03*
X164730000Y-77470000D03*
D17*
X163830000Y-77470000D03*
X163830000Y-74930000D03*
D18*
X164730000Y-74930000D03*
X164730000Y-72390000D03*
D17*
X163830000Y-72390000D03*
D18*
X164730000Y-69850000D03*
D19*
X163830000Y-69850000D03*
D18*
X164730000Y-67310000D03*
D17*
X163830000Y-67310000D03*
D18*
X164730000Y-64770000D03*
D17*
X163830000Y-64770000D03*
D18*
X164730000Y-62230000D03*
D17*
X163830000Y-62230000D03*
D18*
X164730000Y-59690000D03*
D17*
X163830000Y-59690000D03*
D19*
X163830000Y-57150000D03*
D18*
X164730000Y-57150000D03*
X164730000Y-54610000D03*
D17*
X163830000Y-54610000D03*
D18*
X164730000Y-52070000D03*
D17*
X163830000Y-52070000D03*
D18*
X164730000Y-49530000D03*
D17*
X163830000Y-49530000D03*
D18*
X164730000Y-46990000D03*
D17*
X163830000Y-46990000D03*
D19*
X163830000Y-44450000D03*
D18*
X164730000Y-44450000D03*
X164730000Y-41910000D03*
D17*
X163830000Y-41910000D03*
D18*
X164730000Y-39370000D03*
D17*
X163830000Y-39370000D03*
X152400000Y-87400000D03*
D20*
X152400000Y-88300000D03*
D19*
X154940000Y-87400000D03*
D20*
X154940000Y-88300000D03*
D17*
X157480000Y-87400000D03*
D20*
X157480000Y-88300000D03*
%TD*%
D11*
%TO.C,SW3*%
X101764000Y-84270000D03*
X89264000Y-84270000D03*
X101764000Y-89270000D03*
X89264000Y-89270000D03*
%TD*%
D12*
%TO.C,RV3*%
X120932000Y-113030000D03*
D13*
X124432000Y-113030000D03*
X120932000Y-39530000D03*
D14*
X126882000Y-43680000D03*
X126882000Y-108880000D03*
X118482000Y-44880000D03*
X118482000Y-107680000D03*
%TD*%
D12*
%TO.C,RV2*%
X108740000Y-113030000D03*
D13*
X112240000Y-113030000D03*
X108740000Y-39530000D03*
D14*
X114690000Y-43680000D03*
X106290000Y-107680000D03*
X114690000Y-108880000D03*
X106290000Y-44880000D03*
%TD*%
M02*
