%TF.GenerationSoftware,KiCad,Pcbnew,(6.0.0)*%
%TF.CreationDate,2023-01-12T10:54:33-06:00*%
%TF.ProjectId,deej,6465656a-2e6b-4696-9361-645f70636258,rev?*%
%TF.SameCoordinates,Original*%
%TF.FileFunction,Legend,Top*%
%TF.FilePolarity,Positive*%
%FSLAX46Y46*%
G04 Gerber Fmt 4.6, Leading zero omitted, Abs format (unit mm)*
G04 Created by KiCad (PCBNEW (6.0.0)) date 2023-01-12 10:54:33*
%MOMM*%
%LPD*%
G01*
G04 APERTURE LIST*
%ADD10C,0.150000*%
%ADD11C,0.120000*%
%ADD12C,3.200000*%
%ADD13O,3.048000X1.850000*%
%ADD14R,1.750000X1.750000*%
%ADD15C,1.750000*%
%ADD16C,2.700000*%
%ADD17O,1.800000X1.800000*%
%ADD18O,1.500000X1.500000*%
%ADD19O,1.700000X1.700000*%
%ADD20R,3.500000X1.700000*%
%ADD21R,1.700000X1.700000*%
%ADD22R,1.700000X3.500000*%
G04 APERTURE END LIST*
D10*
%TO.C,REF\u002A\u002A*%
X153860666Y-93534380D02*
X153527333Y-93058190D01*
X153289238Y-93534380D02*
X153289238Y-92534380D01*
X153670190Y-92534380D01*
X153765428Y-92582000D01*
X153813047Y-92629619D01*
X153860666Y-92724857D01*
X153860666Y-92867714D01*
X153813047Y-92962952D01*
X153765428Y-93010571D01*
X153670190Y-93058190D01*
X153289238Y-93058190D01*
X154289238Y-93010571D02*
X154622571Y-93010571D01*
X154765428Y-93534380D02*
X154289238Y-93534380D01*
X154289238Y-92534380D01*
X154765428Y-92534380D01*
X155527333Y-93010571D02*
X155194000Y-93010571D01*
X155194000Y-93534380D02*
X155194000Y-92534380D01*
X155670190Y-92534380D01*
X156194000Y-92534380D02*
X156194000Y-92772476D01*
X155955904Y-92677238D02*
X156194000Y-92772476D01*
X156432095Y-92677238D01*
X156051142Y-92962952D02*
X156194000Y-92772476D01*
X156336857Y-92962952D01*
X156955904Y-92534380D02*
X156955904Y-92772476D01*
X156717809Y-92677238D02*
X156955904Y-92772476D01*
X157194000Y-92677238D01*
X156813047Y-92962952D02*
X156955904Y-92772476D01*
X157098761Y-92962952D01*
X153860666Y-51116380D02*
X153527333Y-50640190D01*
X153289238Y-51116380D02*
X153289238Y-50116380D01*
X153670190Y-50116380D01*
X153765428Y-50164000D01*
X153813047Y-50211619D01*
X153860666Y-50306857D01*
X153860666Y-50449714D01*
X153813047Y-50544952D01*
X153765428Y-50592571D01*
X153670190Y-50640190D01*
X153289238Y-50640190D01*
X154289238Y-50592571D02*
X154622571Y-50592571D01*
X154765428Y-51116380D02*
X154289238Y-51116380D01*
X154289238Y-50116380D01*
X154765428Y-50116380D01*
X155527333Y-50592571D02*
X155194000Y-50592571D01*
X155194000Y-51116380D02*
X155194000Y-50116380D01*
X155670190Y-50116380D01*
X156194000Y-50116380D02*
X156194000Y-50354476D01*
X155955904Y-50259238D02*
X156194000Y-50354476D01*
X156432095Y-50259238D01*
X156051142Y-50544952D02*
X156194000Y-50354476D01*
X156336857Y-50544952D01*
X156955904Y-50116380D02*
X156955904Y-50354476D01*
X156717809Y-50259238D02*
X156955904Y-50354476D01*
X157194000Y-50259238D01*
X156813047Y-50544952D02*
X156955904Y-50354476D01*
X157098761Y-50544952D01*
X93789666Y-93534380D02*
X93456333Y-93058190D01*
X93218238Y-93534380D02*
X93218238Y-92534380D01*
X93599190Y-92534380D01*
X93694428Y-92582000D01*
X93742047Y-92629619D01*
X93789666Y-92724857D01*
X93789666Y-92867714D01*
X93742047Y-92962952D01*
X93694428Y-93010571D01*
X93599190Y-93058190D01*
X93218238Y-93058190D01*
X94218238Y-93010571D02*
X94551571Y-93010571D01*
X94694428Y-93534380D02*
X94218238Y-93534380D01*
X94218238Y-92534380D01*
X94694428Y-92534380D01*
X95456333Y-93010571D02*
X95123000Y-93010571D01*
X95123000Y-93534380D02*
X95123000Y-92534380D01*
X95599190Y-92534380D01*
X96123000Y-92534380D02*
X96123000Y-92772476D01*
X95884904Y-92677238D02*
X96123000Y-92772476D01*
X96361095Y-92677238D01*
X95980142Y-92962952D02*
X96123000Y-92772476D01*
X96265857Y-92962952D01*
X96884904Y-92534380D02*
X96884904Y-92772476D01*
X96646809Y-92677238D02*
X96884904Y-92772476D01*
X97123000Y-92677238D01*
X96742047Y-92962952D02*
X96884904Y-92772476D01*
X97027761Y-92962952D01*
X93789666Y-51116380D02*
X93456333Y-50640190D01*
X93218238Y-51116380D02*
X93218238Y-50116380D01*
X93599190Y-50116380D01*
X93694428Y-50164000D01*
X93742047Y-50211619D01*
X93789666Y-50306857D01*
X93789666Y-50449714D01*
X93742047Y-50544952D01*
X93694428Y-50592571D01*
X93599190Y-50640190D01*
X93218238Y-50640190D01*
X94218238Y-50592571D02*
X94551571Y-50592571D01*
X94694428Y-51116380D02*
X94218238Y-51116380D01*
X94218238Y-50116380D01*
X94694428Y-50116380D01*
X95456333Y-50592571D02*
X95123000Y-50592571D01*
X95123000Y-51116380D02*
X95123000Y-50116380D01*
X95599190Y-50116380D01*
X96123000Y-50116380D02*
X96123000Y-50354476D01*
X95884904Y-50259238D02*
X96123000Y-50354476D01*
X96361095Y-50259238D01*
X95980142Y-50544952D02*
X96123000Y-50354476D01*
X96265857Y-50544952D01*
X96884904Y-50116380D02*
X96884904Y-50354476D01*
X96646809Y-50259238D02*
X96884904Y-50354476D01*
X97123000Y-50259238D01*
X96742047Y-50544952D02*
X96884904Y-50354476D01*
X97027761Y-50544952D01*
%TO.C,SW2*%
X93883666Y-58834761D02*
X94026523Y-58882380D01*
X94264619Y-58882380D01*
X94359857Y-58834761D01*
X94407476Y-58787142D01*
X94455095Y-58691904D01*
X94455095Y-58596666D01*
X94407476Y-58501428D01*
X94359857Y-58453809D01*
X94264619Y-58406190D01*
X94074142Y-58358571D01*
X93978904Y-58310952D01*
X93931285Y-58263333D01*
X93883666Y-58168095D01*
X93883666Y-58072857D01*
X93931285Y-57977619D01*
X93978904Y-57930000D01*
X94074142Y-57882380D01*
X94312238Y-57882380D01*
X94455095Y-57930000D01*
X94788428Y-57882380D02*
X95026523Y-58882380D01*
X95217000Y-58168095D01*
X95407476Y-58882380D01*
X95645571Y-57882380D01*
X95978904Y-57977619D02*
X96026523Y-57930000D01*
X96121761Y-57882380D01*
X96359857Y-57882380D01*
X96455095Y-57930000D01*
X96502714Y-57977619D01*
X96550333Y-58072857D01*
X96550333Y-58168095D01*
X96502714Y-58310952D01*
X95931285Y-58882380D01*
X96550333Y-58882380D01*
%TO.C,SW4*%
X93629666Y-101194761D02*
X93772523Y-101242380D01*
X94010619Y-101242380D01*
X94105857Y-101194761D01*
X94153476Y-101147142D01*
X94201095Y-101051904D01*
X94201095Y-100956666D01*
X94153476Y-100861428D01*
X94105857Y-100813809D01*
X94010619Y-100766190D01*
X93820142Y-100718571D01*
X93724904Y-100670952D01*
X93677285Y-100623333D01*
X93629666Y-100528095D01*
X93629666Y-100432857D01*
X93677285Y-100337619D01*
X93724904Y-100290000D01*
X93820142Y-100242380D01*
X94058238Y-100242380D01*
X94201095Y-100290000D01*
X94534428Y-100242380D02*
X94772523Y-101242380D01*
X94963000Y-100528095D01*
X95153476Y-101242380D01*
X95391571Y-100242380D01*
X96201095Y-100575714D02*
X96201095Y-101242380D01*
X95963000Y-100194761D02*
X95724904Y-100909047D01*
X96343952Y-100909047D01*
%TO.C,RV1*%
X129322380Y-76875238D02*
X128846190Y-77208571D01*
X129322380Y-77446666D02*
X128322380Y-77446666D01*
X128322380Y-77065714D01*
X128370000Y-76970476D01*
X128417619Y-76922857D01*
X128512857Y-76875238D01*
X128655714Y-76875238D01*
X128750952Y-76922857D01*
X128798571Y-76970476D01*
X128846190Y-77065714D01*
X128846190Y-77446666D01*
X128322380Y-76589523D02*
X129322380Y-76256190D01*
X128322380Y-75922857D01*
X129322380Y-75065714D02*
X129322380Y-75637142D01*
X129322380Y-75351428D02*
X128322380Y-75351428D01*
X128465238Y-75446666D01*
X128560476Y-75541904D01*
X128608095Y-75637142D01*
%TO.C,SW1*%
X93502666Y-37654761D02*
X93645523Y-37702380D01*
X93883619Y-37702380D01*
X93978857Y-37654761D01*
X94026476Y-37607142D01*
X94074095Y-37511904D01*
X94074095Y-37416666D01*
X94026476Y-37321428D01*
X93978857Y-37273809D01*
X93883619Y-37226190D01*
X93693142Y-37178571D01*
X93597904Y-37130952D01*
X93550285Y-37083333D01*
X93502666Y-36988095D01*
X93502666Y-36892857D01*
X93550285Y-36797619D01*
X93597904Y-36750000D01*
X93693142Y-36702380D01*
X93931238Y-36702380D01*
X94074095Y-36750000D01*
X94407428Y-36702380D02*
X94645523Y-37702380D01*
X94836000Y-36988095D01*
X95026476Y-37702380D01*
X95264571Y-36702380D01*
X96169333Y-37702380D02*
X95597904Y-37702380D01*
X95883619Y-37702380D02*
X95883619Y-36702380D01*
X95788380Y-36845238D01*
X95693142Y-36940476D01*
X95597904Y-36988095D01*
%TO.C,U1*%
X154178095Y-62952380D02*
X154178095Y-63761904D01*
X154225714Y-63857142D01*
X154273333Y-63904761D01*
X154368571Y-63952380D01*
X154559047Y-63952380D01*
X154654285Y-63904761D01*
X154701904Y-63857142D01*
X154749523Y-63761904D01*
X154749523Y-62952380D01*
X155749523Y-63952380D02*
X155178095Y-63952380D01*
X155463809Y-63952380D02*
X155463809Y-62952380D01*
X155368571Y-63095238D01*
X155273333Y-63190476D01*
X155178095Y-63238095D01*
X166860473Y-42569966D02*
X167614720Y-42947089D01*
X167237597Y-42192842D01*
X167937969Y-42569966D02*
X168045719Y-42516091D01*
X168180406Y-42381404D01*
X168207343Y-42300592D01*
X168207343Y-42246717D01*
X168180406Y-42165905D01*
X168126531Y-42112030D01*
X168045719Y-42085093D01*
X167991844Y-42085093D01*
X167911032Y-42112030D01*
X167776345Y-42192842D01*
X167695532Y-42219780D01*
X167641658Y-42219780D01*
X167560845Y-42192842D01*
X167506971Y-42138967D01*
X167480033Y-42058155D01*
X167480033Y-42004280D01*
X167506971Y-41923468D01*
X167641658Y-41788781D01*
X167749407Y-41734906D01*
X168368967Y-41654094D02*
X168638341Y-41923468D01*
X167884094Y-41546345D02*
X168368967Y-41654094D01*
X168261218Y-41169221D01*
X168961590Y-41546345D02*
X169069340Y-41492470D01*
X169204027Y-41357783D01*
X169230964Y-41276971D01*
X169230964Y-41223096D01*
X169204027Y-41142284D01*
X169150152Y-41088409D01*
X169069340Y-41061471D01*
X169015465Y-41061471D01*
X168934653Y-41088409D01*
X168799966Y-41169221D01*
X168719154Y-41196158D01*
X168665279Y-41196158D01*
X168584467Y-41169221D01*
X168530592Y-41115346D01*
X168503654Y-41034534D01*
X168503654Y-40980659D01*
X168530592Y-40899847D01*
X168665279Y-40765160D01*
X168773028Y-40711285D01*
X167037722Y-80400592D02*
X166956910Y-80427529D01*
X166876097Y-80508341D01*
X166822223Y-80616091D01*
X166822223Y-80723841D01*
X166849160Y-80804653D01*
X166929972Y-80939340D01*
X167010784Y-81020152D01*
X167145471Y-81100964D01*
X167226284Y-81127902D01*
X167334033Y-81127902D01*
X167441783Y-81074027D01*
X167495658Y-81020152D01*
X167549532Y-80912402D01*
X167549532Y-80858528D01*
X167360971Y-80669966D01*
X167253221Y-80777715D01*
X167845844Y-80669966D02*
X167280158Y-80104280D01*
X167495658Y-79888781D01*
X167576470Y-79861844D01*
X167630345Y-79861844D01*
X167711157Y-79888781D01*
X167791969Y-79969593D01*
X167818906Y-80050406D01*
X167818906Y-80104280D01*
X167791969Y-80185093D01*
X167576470Y-80400592D01*
X168707841Y-79807969D02*
X168384592Y-80131218D01*
X168546216Y-79969593D02*
X167980531Y-79403908D01*
X168007468Y-79538595D01*
X168007468Y-79646345D01*
X167980531Y-79727157D01*
X168707841Y-79161471D02*
X168627028Y-79188409D01*
X168573154Y-79188409D01*
X168492341Y-79161471D01*
X168465404Y-79134534D01*
X168438467Y-79053722D01*
X168438467Y-78999847D01*
X168465404Y-78919035D01*
X168573154Y-78811285D01*
X168653966Y-78784348D01*
X168707841Y-78784348D01*
X168788653Y-78811285D01*
X168815590Y-78838223D01*
X168842528Y-78919035D01*
X168842528Y-78972910D01*
X168815590Y-79053722D01*
X168707841Y-79161471D01*
X168680903Y-79242284D01*
X168680903Y-79296158D01*
X168707841Y-79376971D01*
X168815590Y-79484720D01*
X168896402Y-79511658D01*
X168950277Y-79511658D01*
X169031089Y-79484720D01*
X169138839Y-79376971D01*
X169165776Y-79296158D01*
X169165776Y-79242284D01*
X169138839Y-79161471D01*
X169031089Y-79053722D01*
X168950277Y-79026784D01*
X168896402Y-79026784D01*
X168815590Y-79053722D01*
X140783722Y-77860592D02*
X140702910Y-77887529D01*
X140622097Y-77968341D01*
X140568223Y-78076091D01*
X140568223Y-78183841D01*
X140595160Y-78264653D01*
X140675972Y-78399340D01*
X140756784Y-78480152D01*
X140891471Y-78560964D01*
X140972284Y-78587902D01*
X141080033Y-78587902D01*
X141187783Y-78534027D01*
X141241658Y-78480152D01*
X141295532Y-78372402D01*
X141295532Y-78318528D01*
X141106971Y-78129966D01*
X140999221Y-78237715D01*
X141591844Y-78129966D02*
X141026158Y-77564280D01*
X141241658Y-77348781D01*
X141322470Y-77321844D01*
X141376345Y-77321844D01*
X141457157Y-77348781D01*
X141537969Y-77429593D01*
X141564906Y-77510406D01*
X141564906Y-77564280D01*
X141537969Y-77645093D01*
X141322470Y-77860592D01*
X142453841Y-77267969D02*
X142130592Y-77591218D01*
X142292216Y-77429593D02*
X141726531Y-76863908D01*
X141753468Y-76998595D01*
X141753468Y-77106345D01*
X141726531Y-77187157D01*
X142157529Y-76540659D02*
X142157529Y-76486784D01*
X142184467Y-76405972D01*
X142319154Y-76271285D01*
X142399966Y-76244348D01*
X142453841Y-76244348D01*
X142534653Y-76271285D01*
X142588528Y-76325160D01*
X142642402Y-76432910D01*
X142642402Y-77079407D01*
X142992589Y-76729221D01*
X140883722Y-85480592D02*
X140802910Y-85507529D01*
X140722097Y-85588341D01*
X140668223Y-85696091D01*
X140668223Y-85803841D01*
X140695160Y-85884653D01*
X140775972Y-86019340D01*
X140856784Y-86100152D01*
X140991471Y-86180964D01*
X141072284Y-86207902D01*
X141180033Y-86207902D01*
X141287783Y-86154027D01*
X141341658Y-86100152D01*
X141395532Y-85992402D01*
X141395532Y-85938528D01*
X141206971Y-85749966D01*
X141099221Y-85857715D01*
X141691844Y-85749966D02*
X141126158Y-85184280D01*
X141341658Y-84968781D01*
X141422470Y-84941844D01*
X141476345Y-84941844D01*
X141557157Y-84968781D01*
X141637969Y-85049593D01*
X141664906Y-85130406D01*
X141664906Y-85184280D01*
X141637969Y-85265093D01*
X141422470Y-85480592D01*
X142553841Y-84887969D02*
X142230592Y-85211218D01*
X142392216Y-85049593D02*
X141826531Y-84483908D01*
X141853468Y-84618595D01*
X141853468Y-84726345D01*
X141826531Y-84807157D01*
X142661590Y-84025972D02*
X143038714Y-84403096D01*
X142311404Y-83945160D02*
X142580778Y-84483908D01*
X142930964Y-84133722D01*
X167037722Y-67700592D02*
X166956910Y-67727529D01*
X166876097Y-67808341D01*
X166822223Y-67916091D01*
X166822223Y-68023841D01*
X166849160Y-68104653D01*
X166929972Y-68239340D01*
X167010784Y-68320152D01*
X167145471Y-68400964D01*
X167226284Y-68427902D01*
X167334033Y-68427902D01*
X167441783Y-68374027D01*
X167495658Y-68320152D01*
X167549532Y-68212402D01*
X167549532Y-68158528D01*
X167360971Y-67969966D01*
X167253221Y-68077715D01*
X167845844Y-67969966D02*
X167280158Y-67404280D01*
X167495658Y-67188781D01*
X167576470Y-67161844D01*
X167630345Y-67161844D01*
X167711157Y-67188781D01*
X167791969Y-67269593D01*
X167818906Y-67350406D01*
X167818906Y-67404280D01*
X167791969Y-67485093D01*
X167576470Y-67700592D01*
X167872781Y-66919407D02*
X167872781Y-66865532D01*
X167899719Y-66784720D01*
X168034406Y-66650033D01*
X168115218Y-66623096D01*
X168169093Y-66623096D01*
X168249905Y-66650033D01*
X168303780Y-66703908D01*
X168357654Y-66811658D01*
X168357654Y-67458155D01*
X168707841Y-67107969D01*
X168411529Y-66380659D02*
X168411529Y-66326784D01*
X168438467Y-66245972D01*
X168573154Y-66111285D01*
X168653966Y-66084348D01*
X168707841Y-66084348D01*
X168788653Y-66111285D01*
X168842528Y-66165160D01*
X168896402Y-66272910D01*
X168896402Y-66919407D01*
X169246589Y-66569221D01*
X141453096Y-59811218D02*
X141372284Y-59838155D01*
X141291471Y-59918967D01*
X141237597Y-60026717D01*
X141237597Y-60134467D01*
X141264534Y-60215279D01*
X141345346Y-60349966D01*
X141426158Y-60430778D01*
X141560845Y-60511590D01*
X141641658Y-60538528D01*
X141749407Y-60538528D01*
X141857157Y-60484653D01*
X141911032Y-60430778D01*
X141964906Y-60323028D01*
X141964906Y-60269154D01*
X141776345Y-60080592D01*
X141668595Y-60188341D01*
X142261218Y-60080592D02*
X141695532Y-59514906D01*
X141911032Y-59299407D01*
X141991844Y-59272470D01*
X142045719Y-59272470D01*
X142126531Y-59299407D01*
X142207343Y-59380219D01*
X142234280Y-59461032D01*
X142234280Y-59514906D01*
X142207343Y-59595719D01*
X141991844Y-59811218D01*
X142503654Y-58706784D02*
X142395905Y-58814534D01*
X142368967Y-58895346D01*
X142368967Y-58949221D01*
X142395905Y-59083908D01*
X142476717Y-59218595D01*
X142692216Y-59434094D01*
X142773028Y-59461032D01*
X142826903Y-59461032D01*
X142907715Y-59434094D01*
X143015465Y-59326345D01*
X143042402Y-59245532D01*
X143042402Y-59191658D01*
X143015465Y-59110845D01*
X142880778Y-58976158D01*
X142799966Y-58949221D01*
X142746091Y-58949221D01*
X142665279Y-58976158D01*
X142557529Y-59083908D01*
X142530592Y-59164720D01*
X142530592Y-59218595D01*
X142557529Y-59299407D01*
X167037722Y-85480592D02*
X166956910Y-85507529D01*
X166876097Y-85588341D01*
X166822223Y-85696091D01*
X166822223Y-85803841D01*
X166849160Y-85884653D01*
X166929972Y-86019340D01*
X167010784Y-86100152D01*
X167145471Y-86180964D01*
X167226284Y-86207902D01*
X167334033Y-86207902D01*
X167441783Y-86154027D01*
X167495658Y-86100152D01*
X167549532Y-85992402D01*
X167549532Y-85938528D01*
X167360971Y-85749966D01*
X167253221Y-85857715D01*
X167845844Y-85749966D02*
X167280158Y-85184280D01*
X167495658Y-84968781D01*
X167576470Y-84941844D01*
X167630345Y-84941844D01*
X167711157Y-84968781D01*
X167791969Y-85049593D01*
X167818906Y-85130406D01*
X167818906Y-85184280D01*
X167791969Y-85265093D01*
X167576470Y-85480592D01*
X168707841Y-84887969D02*
X168384592Y-85211218D01*
X168546216Y-85049593D02*
X167980531Y-84483908D01*
X168007468Y-84618595D01*
X168007468Y-84726345D01*
X167980531Y-84807157D01*
X168330717Y-84133722D02*
X168707841Y-83756598D01*
X169031089Y-84564720D01*
X141453096Y-64891218D02*
X141372284Y-64918155D01*
X141291471Y-64998967D01*
X141237597Y-65106717D01*
X141237597Y-65214467D01*
X141264534Y-65295279D01*
X141345346Y-65429966D01*
X141426158Y-65510778D01*
X141560845Y-65591590D01*
X141641658Y-65618528D01*
X141749407Y-65618528D01*
X141857157Y-65564653D01*
X141911032Y-65510778D01*
X141964906Y-65403028D01*
X141964906Y-65349154D01*
X141776345Y-65160592D01*
X141668595Y-65268341D01*
X142261218Y-65160592D02*
X141695532Y-64594906D01*
X141911032Y-64379407D01*
X141991844Y-64352470D01*
X142045719Y-64352470D01*
X142126531Y-64379407D01*
X142207343Y-64460219D01*
X142234280Y-64541032D01*
X142234280Y-64594906D01*
X142207343Y-64675719D01*
X141991844Y-64891218D01*
X142584467Y-64190845D02*
X142503654Y-64217783D01*
X142449780Y-64217783D01*
X142368967Y-64190845D01*
X142342030Y-64163908D01*
X142315093Y-64083096D01*
X142315093Y-64029221D01*
X142342030Y-63948409D01*
X142449780Y-63840659D01*
X142530592Y-63813722D01*
X142584467Y-63813722D01*
X142665279Y-63840659D01*
X142692216Y-63867597D01*
X142719154Y-63948409D01*
X142719154Y-64002284D01*
X142692216Y-64083096D01*
X142584467Y-64190845D01*
X142557529Y-64271658D01*
X142557529Y-64325532D01*
X142584467Y-64406345D01*
X142692216Y-64514094D01*
X142773028Y-64541032D01*
X142826903Y-64541032D01*
X142907715Y-64514094D01*
X143015465Y-64406345D01*
X143042402Y-64325532D01*
X143042402Y-64271658D01*
X143015465Y-64190845D01*
X142907715Y-64083096D01*
X142826903Y-64056158D01*
X142773028Y-64056158D01*
X142692216Y-64083096D01*
X141453096Y-52191218D02*
X141372284Y-52218155D01*
X141291471Y-52298967D01*
X141237597Y-52406717D01*
X141237597Y-52514467D01*
X141264534Y-52595279D01*
X141345346Y-52729966D01*
X141426158Y-52810778D01*
X141560845Y-52891590D01*
X141641658Y-52918528D01*
X141749407Y-52918528D01*
X141857157Y-52864653D01*
X141911032Y-52810778D01*
X141964906Y-52703028D01*
X141964906Y-52649154D01*
X141776345Y-52460592D01*
X141668595Y-52568341D01*
X142261218Y-52460592D02*
X141695532Y-51894906D01*
X141911032Y-51679407D01*
X141991844Y-51652470D01*
X142045719Y-51652470D01*
X142126531Y-51679407D01*
X142207343Y-51760219D01*
X142234280Y-51841032D01*
X142234280Y-51894906D01*
X142207343Y-51975719D01*
X141991844Y-52191218D01*
X142692216Y-51275346D02*
X143069340Y-51652470D01*
X142342030Y-51194534D02*
X142611404Y-51733282D01*
X142961590Y-51383096D01*
X147430476Y-90023809D02*
X147544761Y-90061904D01*
X147735238Y-90061904D01*
X147811428Y-90023809D01*
X147849523Y-89985714D01*
X147887619Y-89909523D01*
X147887619Y-89833333D01*
X147849523Y-89757142D01*
X147811428Y-89719047D01*
X147735238Y-89680952D01*
X147582857Y-89642857D01*
X147506666Y-89604761D01*
X147468571Y-89566666D01*
X147430476Y-89490476D01*
X147430476Y-89414285D01*
X147468571Y-89338095D01*
X147506666Y-89300000D01*
X147582857Y-89261904D01*
X147773333Y-89261904D01*
X147887619Y-89300000D01*
X148154285Y-89261904D02*
X148344761Y-90061904D01*
X148497142Y-89490476D01*
X148649523Y-90061904D01*
X148840000Y-89261904D01*
X149601904Y-89985714D02*
X149563809Y-90023809D01*
X149449523Y-90061904D01*
X149373333Y-90061904D01*
X149259047Y-90023809D01*
X149182857Y-89947619D01*
X149144761Y-89871428D01*
X149106666Y-89719047D01*
X149106666Y-89604761D01*
X149144761Y-89452380D01*
X149182857Y-89376190D01*
X149259047Y-89300000D01*
X149373333Y-89261904D01*
X149449523Y-89261904D01*
X149563809Y-89300000D01*
X149601904Y-89338095D01*
X150325714Y-90061904D02*
X149944761Y-90061904D01*
X149944761Y-89261904D01*
X150592380Y-90061904D02*
X150592380Y-89261904D01*
X151049523Y-90061904D02*
X150706666Y-89604761D01*
X151049523Y-89261904D02*
X150592380Y-89719047D01*
X140783722Y-75320592D02*
X140702910Y-75347529D01*
X140622097Y-75428341D01*
X140568223Y-75536091D01*
X140568223Y-75643841D01*
X140595160Y-75724653D01*
X140675972Y-75859340D01*
X140756784Y-75940152D01*
X140891471Y-76020964D01*
X140972284Y-76047902D01*
X141080033Y-76047902D01*
X141187783Y-75994027D01*
X141241658Y-75940152D01*
X141295532Y-75832402D01*
X141295532Y-75778528D01*
X141106971Y-75589966D01*
X140999221Y-75697715D01*
X141591844Y-75589966D02*
X141026158Y-75024280D01*
X141241658Y-74808781D01*
X141322470Y-74781844D01*
X141376345Y-74781844D01*
X141457157Y-74808781D01*
X141537969Y-74889593D01*
X141564906Y-74970406D01*
X141564906Y-75024280D01*
X141537969Y-75105093D01*
X141322470Y-75320592D01*
X142453841Y-74727969D02*
X142130592Y-75051218D01*
X142292216Y-74889593D02*
X141726531Y-74323908D01*
X141753468Y-74458595D01*
X141753468Y-74566345D01*
X141726531Y-74647157D01*
X142992589Y-74189221D02*
X142669340Y-74512470D01*
X142830964Y-74350845D02*
X142265279Y-73785160D01*
X142292216Y-73919847D01*
X142292216Y-74027597D01*
X142265279Y-74108409D01*
X166862131Y-47458308D02*
X167212317Y-47108122D01*
X167239255Y-47512183D01*
X167320067Y-47431370D01*
X167400879Y-47404433D01*
X167454754Y-47404433D01*
X167535566Y-47431370D01*
X167670253Y-47566057D01*
X167697190Y-47646870D01*
X167697190Y-47700744D01*
X167670253Y-47781557D01*
X167508629Y-47943181D01*
X167427816Y-47970118D01*
X167373942Y-47970118D01*
X167373942Y-46946497D02*
X168128189Y-47323621D01*
X167751065Y-46569374D01*
X167885752Y-46434687D02*
X168235938Y-46084500D01*
X168262876Y-46488561D01*
X168343688Y-46407749D01*
X168424500Y-46380812D01*
X168478375Y-46380812D01*
X168559187Y-46407749D01*
X168693874Y-46542436D01*
X168720812Y-46623248D01*
X168720812Y-46677123D01*
X168693874Y-46757935D01*
X168532250Y-46919560D01*
X168451438Y-46946497D01*
X168397563Y-46946497D01*
X168963248Y-46596311D02*
X169394247Y-46165312D01*
X169178748Y-45680439D02*
X169367309Y-45491877D01*
X169744433Y-45707377D02*
X169475059Y-45976751D01*
X168909374Y-45411065D01*
X169178748Y-45141691D01*
X169986870Y-45464940D02*
X169421184Y-44899255D01*
X170310118Y-45141691D01*
X169744433Y-44576006D01*
X141426158Y-82698155D02*
X141345346Y-82725093D01*
X141264534Y-82805905D01*
X141210659Y-82913654D01*
X141210659Y-83021404D01*
X141237597Y-83102216D01*
X141318409Y-83236903D01*
X141399221Y-83317715D01*
X141533908Y-83398528D01*
X141614720Y-83425465D01*
X141722470Y-83425465D01*
X141830219Y-83371590D01*
X141884094Y-83317715D01*
X141937969Y-83209966D01*
X141937969Y-83156091D01*
X141749407Y-82967529D01*
X141641658Y-83075279D01*
X142234280Y-82967529D02*
X141668595Y-82401844D01*
X142557529Y-82644280D01*
X141991844Y-82078595D01*
X142826903Y-82374906D02*
X142261218Y-81809221D01*
X142395905Y-81674534D01*
X142503654Y-81620659D01*
X142611404Y-81620659D01*
X142692216Y-81647597D01*
X142826903Y-81728409D01*
X142907715Y-81809221D01*
X142988528Y-81943908D01*
X143015465Y-82024720D01*
X143015465Y-82132470D01*
X142961590Y-82240219D01*
X142826903Y-82374906D01*
X141426158Y-44598155D02*
X141345346Y-44625093D01*
X141264534Y-44705905D01*
X141210659Y-44813654D01*
X141210659Y-44921404D01*
X141237597Y-45002216D01*
X141318409Y-45136903D01*
X141399221Y-45217715D01*
X141533908Y-45298528D01*
X141614720Y-45325465D01*
X141722470Y-45325465D01*
X141830219Y-45271590D01*
X141884094Y-45217715D01*
X141937969Y-45109966D01*
X141937969Y-45056091D01*
X141749407Y-44867529D01*
X141641658Y-44975279D01*
X142234280Y-44867529D02*
X141668595Y-44301844D01*
X142557529Y-44544280D01*
X141991844Y-43978595D01*
X142826903Y-44274906D02*
X142261218Y-43709221D01*
X142395905Y-43574534D01*
X142503654Y-43520659D01*
X142611404Y-43520659D01*
X142692216Y-43547597D01*
X142826903Y-43628409D01*
X142907715Y-43709221D01*
X142988528Y-43843908D01*
X143015465Y-43924720D01*
X143015465Y-44032470D01*
X142961590Y-44140219D01*
X142826903Y-44274906D01*
X141453096Y-67431218D02*
X141372284Y-67458155D01*
X141291471Y-67538967D01*
X141237597Y-67646717D01*
X141237597Y-67754467D01*
X141264534Y-67835279D01*
X141345346Y-67969966D01*
X141426158Y-68050778D01*
X141560845Y-68131590D01*
X141641658Y-68158528D01*
X141749407Y-68158528D01*
X141857157Y-68104653D01*
X141911032Y-68050778D01*
X141964906Y-67943028D01*
X141964906Y-67889154D01*
X141776345Y-67700592D01*
X141668595Y-67808341D01*
X142261218Y-67700592D02*
X141695532Y-67134906D01*
X141911032Y-66919407D01*
X141991844Y-66892470D01*
X142045719Y-66892470D01*
X142126531Y-66919407D01*
X142207343Y-67000219D01*
X142234280Y-67081032D01*
X142234280Y-67134906D01*
X142207343Y-67215719D01*
X141991844Y-67431218D01*
X142853841Y-67107969D02*
X142961590Y-67000219D01*
X142988528Y-66919407D01*
X142988528Y-66865532D01*
X142961590Y-66730845D01*
X142880778Y-66596158D01*
X142665279Y-66380659D01*
X142584467Y-66353722D01*
X142530592Y-66353722D01*
X142449780Y-66380659D01*
X142342030Y-66488409D01*
X142315093Y-66569221D01*
X142315093Y-66623096D01*
X142342030Y-66703908D01*
X142476717Y-66838595D01*
X142557529Y-66865532D01*
X142611404Y-66865532D01*
X142692216Y-66838595D01*
X142799966Y-66730845D01*
X142826903Y-66650033D01*
X142826903Y-66596158D01*
X142799966Y-66515346D01*
X140929722Y-72780592D02*
X140848910Y-72807529D01*
X140768097Y-72888341D01*
X140714223Y-72996091D01*
X140714223Y-73103841D01*
X140741160Y-73184653D01*
X140821972Y-73319340D01*
X140902784Y-73400152D01*
X141037471Y-73480964D01*
X141118284Y-73507902D01*
X141226033Y-73507902D01*
X141333783Y-73454027D01*
X141387658Y-73400152D01*
X141441532Y-73292402D01*
X141441532Y-73238528D01*
X141252971Y-73049966D01*
X141145221Y-73157715D01*
X141737844Y-73049966D02*
X141172158Y-72484280D01*
X141387658Y-72268781D01*
X141468470Y-72241844D01*
X141522345Y-72241844D01*
X141603157Y-72268781D01*
X141683969Y-72349593D01*
X141710906Y-72430406D01*
X141710906Y-72484280D01*
X141683969Y-72565093D01*
X141468470Y-72780592D01*
X142599841Y-72187969D02*
X142276592Y-72511218D01*
X142438216Y-72349593D02*
X141872531Y-71783908D01*
X141899468Y-71918595D01*
X141899468Y-72026345D01*
X141872531Y-72107157D01*
X142384341Y-71272097D02*
X142438216Y-71218223D01*
X142519028Y-71191285D01*
X142572903Y-71191285D01*
X142653715Y-71218223D01*
X142788402Y-71299035D01*
X142923089Y-71433722D01*
X143003902Y-71568409D01*
X143030839Y-71649221D01*
X143030839Y-71703096D01*
X143003902Y-71783908D01*
X142950027Y-71837783D01*
X142869215Y-71864720D01*
X142815340Y-71864720D01*
X142734528Y-71837783D01*
X142599841Y-71756971D01*
X142465154Y-71622284D01*
X142384341Y-71487597D01*
X142357404Y-71406784D01*
X142357404Y-71352910D01*
X142384341Y-71272097D01*
X141553096Y-62321218D02*
X141472284Y-62348155D01*
X141391471Y-62428967D01*
X141337597Y-62536717D01*
X141337597Y-62644467D01*
X141364534Y-62725279D01*
X141445346Y-62859966D01*
X141526158Y-62940778D01*
X141660845Y-63021590D01*
X141741658Y-63048528D01*
X141849407Y-63048528D01*
X141957157Y-62994653D01*
X142011032Y-62940778D01*
X142064906Y-62833028D01*
X142064906Y-62779154D01*
X141876345Y-62590592D01*
X141768595Y-62698341D01*
X142361218Y-62590592D02*
X141795532Y-62024906D01*
X142011032Y-61809407D01*
X142091844Y-61782470D01*
X142145719Y-61782470D01*
X142226531Y-61809407D01*
X142307343Y-61890219D01*
X142334280Y-61971032D01*
X142334280Y-62024906D01*
X142307343Y-62105719D01*
X142091844Y-62321218D01*
X142307343Y-61513096D02*
X142684467Y-61135972D01*
X143007715Y-61944094D01*
X141426158Y-57298155D02*
X141345346Y-57325093D01*
X141264534Y-57405905D01*
X141210659Y-57513654D01*
X141210659Y-57621404D01*
X141237597Y-57702216D01*
X141318409Y-57836903D01*
X141399221Y-57917715D01*
X141533908Y-57998528D01*
X141614720Y-58025465D01*
X141722470Y-58025465D01*
X141830219Y-57971590D01*
X141884094Y-57917715D01*
X141937969Y-57809966D01*
X141937969Y-57756091D01*
X141749407Y-57567529D01*
X141641658Y-57675279D01*
X142234280Y-57567529D02*
X141668595Y-57001844D01*
X142557529Y-57244280D01*
X141991844Y-56678595D01*
X142826903Y-56974906D02*
X142261218Y-56409221D01*
X142395905Y-56274534D01*
X142503654Y-56220659D01*
X142611404Y-56220659D01*
X142692216Y-56247597D01*
X142826903Y-56328409D01*
X142907715Y-56409221D01*
X142988528Y-56543908D01*
X143015465Y-56624720D01*
X143015465Y-56732470D01*
X142961590Y-56840219D01*
X142826903Y-56974906D01*
X158844761Y-90023809D02*
X158959047Y-90061904D01*
X159149523Y-90061904D01*
X159225714Y-90023809D01*
X159263809Y-89985714D01*
X159301904Y-89909523D01*
X159301904Y-89833333D01*
X159263809Y-89757142D01*
X159225714Y-89719047D01*
X159149523Y-89680952D01*
X158997142Y-89642857D01*
X158920952Y-89604761D01*
X158882857Y-89566666D01*
X158844761Y-89490476D01*
X158844761Y-89414285D01*
X158882857Y-89338095D01*
X158920952Y-89300000D01*
X158997142Y-89261904D01*
X159187619Y-89261904D01*
X159301904Y-89300000D01*
X159568571Y-89261904D02*
X159759047Y-90061904D01*
X159911428Y-89490476D01*
X160063809Y-90061904D01*
X160254285Y-89261904D01*
X160559047Y-90061904D02*
X160559047Y-89261904D01*
X160749523Y-89261904D01*
X160863809Y-89300000D01*
X160940000Y-89376190D01*
X160978095Y-89452380D01*
X161016190Y-89604761D01*
X161016190Y-89719047D01*
X160978095Y-89871428D01*
X160940000Y-89947619D01*
X160863809Y-90023809D01*
X160749523Y-90061904D01*
X160559047Y-90061904D01*
X161359047Y-90061904D02*
X161359047Y-89261904D01*
X161892380Y-89261904D02*
X162044761Y-89261904D01*
X162120952Y-89300000D01*
X162197142Y-89376190D01*
X162235238Y-89528571D01*
X162235238Y-89795238D01*
X162197142Y-89947619D01*
X162120952Y-90023809D01*
X162044761Y-90061904D01*
X161892380Y-90061904D01*
X161816190Y-90023809D01*
X161740000Y-89947619D01*
X161701904Y-89795238D01*
X161701904Y-89528571D01*
X161740000Y-89376190D01*
X161816190Y-89300000D01*
X161892380Y-89261904D01*
X167778375Y-65443435D02*
X167320439Y-65362622D01*
X167455126Y-65766683D02*
X166889441Y-65200998D01*
X167104940Y-64985499D01*
X167185752Y-64958561D01*
X167239627Y-64958561D01*
X167320439Y-64985499D01*
X167401251Y-65066311D01*
X167428189Y-65147123D01*
X167428189Y-65200998D01*
X167401251Y-65281810D01*
X167185752Y-65497309D01*
X167455126Y-64635312D02*
X167913062Y-65093248D01*
X167993874Y-65120186D01*
X168047749Y-65120186D01*
X168128561Y-65093248D01*
X168236311Y-64985499D01*
X168263248Y-64904687D01*
X168263248Y-64850812D01*
X168236311Y-64769999D01*
X167778375Y-64312064D01*
X168613435Y-64608375D02*
X168047749Y-64042690D01*
X168936683Y-64285126D01*
X168370998Y-63719441D01*
X167037722Y-72790592D02*
X166956910Y-72817529D01*
X166876097Y-72898341D01*
X166822223Y-73006091D01*
X166822223Y-73113841D01*
X166849160Y-73194653D01*
X166929972Y-73329340D01*
X167010784Y-73410152D01*
X167145471Y-73490964D01*
X167226284Y-73517902D01*
X167334033Y-73517902D01*
X167441783Y-73464027D01*
X167495658Y-73410152D01*
X167549532Y-73302402D01*
X167549532Y-73248528D01*
X167360971Y-73059966D01*
X167253221Y-73167715D01*
X167845844Y-73059966D02*
X167280158Y-72494280D01*
X167495658Y-72278781D01*
X167576470Y-72251844D01*
X167630345Y-72251844D01*
X167711157Y-72278781D01*
X167791969Y-72359593D01*
X167818906Y-72440406D01*
X167818906Y-72494280D01*
X167791969Y-72575093D01*
X167576470Y-72790592D01*
X167872781Y-72009407D02*
X167872781Y-71955532D01*
X167899719Y-71874720D01*
X168034406Y-71740033D01*
X168115218Y-71713096D01*
X168169093Y-71713096D01*
X168249905Y-71740033D01*
X168303780Y-71793908D01*
X168357654Y-71901658D01*
X168357654Y-72548155D01*
X168707841Y-72197969D01*
X169246589Y-71659221D02*
X168923340Y-71982470D01*
X169084964Y-71820845D02*
X168519279Y-71255160D01*
X168546216Y-71389847D01*
X168546216Y-71497597D01*
X168519279Y-71578409D01*
X166829847Y-49990592D02*
X167180033Y-49640406D01*
X167206971Y-50044467D01*
X167287783Y-49963654D01*
X167368595Y-49936717D01*
X167422470Y-49936717D01*
X167503282Y-49963654D01*
X167637969Y-50098341D01*
X167664906Y-50179154D01*
X167664906Y-50233028D01*
X167637969Y-50313841D01*
X167476345Y-50475465D01*
X167395532Y-50502402D01*
X167341658Y-50502402D01*
X167341658Y-49478781D02*
X168095905Y-49855905D01*
X167718781Y-49101658D01*
X167853468Y-48966971D02*
X168203654Y-48616784D01*
X168230592Y-49020845D01*
X168311404Y-48940033D01*
X168392216Y-48913096D01*
X168446091Y-48913096D01*
X168526903Y-48940033D01*
X168661590Y-49074720D01*
X168688528Y-49155532D01*
X168688528Y-49209407D01*
X168661590Y-49290219D01*
X168499966Y-49451844D01*
X168419154Y-49478781D01*
X168365279Y-49478781D01*
X167037722Y-54746592D02*
X166956910Y-54773529D01*
X166876097Y-54854341D01*
X166822223Y-54962091D01*
X166822223Y-55069841D01*
X166849160Y-55150653D01*
X166929972Y-55285340D01*
X167010784Y-55366152D01*
X167145471Y-55446964D01*
X167226284Y-55473902D01*
X167334033Y-55473902D01*
X167441783Y-55420027D01*
X167495658Y-55366152D01*
X167549532Y-55258402D01*
X167549532Y-55204528D01*
X167360971Y-55015966D01*
X167253221Y-55123715D01*
X167845844Y-55015966D02*
X167280158Y-54450280D01*
X167495658Y-54234781D01*
X167576470Y-54207844D01*
X167630345Y-54207844D01*
X167711157Y-54234781D01*
X167791969Y-54315593D01*
X167818906Y-54396406D01*
X167818906Y-54450280D01*
X167791969Y-54531093D01*
X167576470Y-54746592D01*
X167872781Y-53965407D02*
X167872781Y-53911532D01*
X167899719Y-53830720D01*
X168034406Y-53696033D01*
X168115218Y-53669096D01*
X168169093Y-53669096D01*
X168249905Y-53696033D01*
X168303780Y-53749908D01*
X168357654Y-53857658D01*
X168357654Y-54504155D01*
X168707841Y-54153969D01*
X168707841Y-53507471D02*
X168627028Y-53534409D01*
X168573154Y-53534409D01*
X168492341Y-53507471D01*
X168465404Y-53480534D01*
X168438467Y-53399722D01*
X168438467Y-53345847D01*
X168465404Y-53265035D01*
X168573154Y-53157285D01*
X168653966Y-53130348D01*
X168707841Y-53130348D01*
X168788653Y-53157285D01*
X168815590Y-53184223D01*
X168842528Y-53265035D01*
X168842528Y-53318910D01*
X168815590Y-53399722D01*
X168707841Y-53507471D01*
X168680903Y-53588284D01*
X168680903Y-53642158D01*
X168707841Y-53722971D01*
X168815590Y-53830720D01*
X168896402Y-53857658D01*
X168950277Y-53857658D01*
X169031089Y-53830720D01*
X169138839Y-53722971D01*
X169165776Y-53642158D01*
X169165776Y-53588284D01*
X169138839Y-53507471D01*
X169031089Y-53399722D01*
X168950277Y-53372784D01*
X168896402Y-53372784D01*
X168815590Y-53399722D01*
X141353096Y-42021218D02*
X141272284Y-42048155D01*
X141191471Y-42128967D01*
X141137597Y-42236717D01*
X141137597Y-42344467D01*
X141164534Y-42425279D01*
X141245346Y-42559966D01*
X141326158Y-42640778D01*
X141460845Y-42721590D01*
X141541658Y-42748528D01*
X141649407Y-42748528D01*
X141757157Y-42694653D01*
X141811032Y-42640778D01*
X141864906Y-42533028D01*
X141864906Y-42479154D01*
X141676345Y-42290592D01*
X141568595Y-42398341D01*
X142161218Y-42290592D02*
X141595532Y-41724906D01*
X141811032Y-41509407D01*
X141891844Y-41482470D01*
X141945719Y-41482470D01*
X142026531Y-41509407D01*
X142107343Y-41590219D01*
X142134280Y-41671032D01*
X142134280Y-41724906D01*
X142107343Y-41805719D01*
X141891844Y-42021218D01*
X143023215Y-41428595D02*
X142699966Y-41751844D01*
X142861590Y-41590219D02*
X142295905Y-41024534D01*
X142322842Y-41159221D01*
X142322842Y-41266971D01*
X142295905Y-41347783D01*
X141426158Y-69998155D02*
X141345346Y-70025093D01*
X141264534Y-70105905D01*
X141210659Y-70213654D01*
X141210659Y-70321404D01*
X141237597Y-70402216D01*
X141318409Y-70536903D01*
X141399221Y-70617715D01*
X141533908Y-70698528D01*
X141614720Y-70725465D01*
X141722470Y-70725465D01*
X141830219Y-70671590D01*
X141884094Y-70617715D01*
X141937969Y-70509966D01*
X141937969Y-70456091D01*
X141749407Y-70267529D01*
X141641658Y-70375279D01*
X142234280Y-70267529D02*
X141668595Y-69701844D01*
X142557529Y-69944280D01*
X141991844Y-69378595D01*
X142826903Y-69674906D02*
X142261218Y-69109221D01*
X142395905Y-68974534D01*
X142503654Y-68920659D01*
X142611404Y-68920659D01*
X142692216Y-68947597D01*
X142826903Y-69028409D01*
X142907715Y-69109221D01*
X142988528Y-69243908D01*
X143015465Y-69324720D01*
X143015465Y-69432470D01*
X142961590Y-69540219D01*
X142826903Y-69674906D01*
X167037722Y-77860592D02*
X166956910Y-77887529D01*
X166876097Y-77968341D01*
X166822223Y-78076091D01*
X166822223Y-78183841D01*
X166849160Y-78264653D01*
X166929972Y-78399340D01*
X167010784Y-78480152D01*
X167145471Y-78560964D01*
X167226284Y-78587902D01*
X167334033Y-78587902D01*
X167441783Y-78534027D01*
X167495658Y-78480152D01*
X167549532Y-78372402D01*
X167549532Y-78318528D01*
X167360971Y-78129966D01*
X167253221Y-78237715D01*
X167845844Y-78129966D02*
X167280158Y-77564280D01*
X167495658Y-77348781D01*
X167576470Y-77321844D01*
X167630345Y-77321844D01*
X167711157Y-77348781D01*
X167791969Y-77429593D01*
X167818906Y-77510406D01*
X167818906Y-77564280D01*
X167791969Y-77645093D01*
X167576470Y-77860592D01*
X168707841Y-77267969D02*
X168384592Y-77591218D01*
X168546216Y-77429593D02*
X167980531Y-76863908D01*
X168007468Y-76998595D01*
X168007468Y-77106345D01*
X167980531Y-77187157D01*
X168977215Y-76998595D02*
X169084964Y-76890845D01*
X169111902Y-76810033D01*
X169111902Y-76756158D01*
X169084964Y-76621471D01*
X169004152Y-76486784D01*
X168788653Y-76271285D01*
X168707841Y-76244348D01*
X168653966Y-76244348D01*
X168573154Y-76271285D01*
X168465404Y-76379035D01*
X168438467Y-76459847D01*
X168438467Y-76513722D01*
X168465404Y-76594534D01*
X168600091Y-76729221D01*
X168680903Y-76756158D01*
X168734778Y-76756158D01*
X168815590Y-76729221D01*
X168923340Y-76621471D01*
X168950277Y-76540659D01*
X168950277Y-76486784D01*
X168923340Y-76405972D01*
X167026158Y-82698155D02*
X166945346Y-82725093D01*
X166864534Y-82805905D01*
X166810659Y-82913654D01*
X166810659Y-83021404D01*
X166837597Y-83102216D01*
X166918409Y-83236903D01*
X166999221Y-83317715D01*
X167133908Y-83398528D01*
X167214720Y-83425465D01*
X167322470Y-83425465D01*
X167430219Y-83371590D01*
X167484094Y-83317715D01*
X167537969Y-83209966D01*
X167537969Y-83156091D01*
X167349407Y-82967529D01*
X167241658Y-83075279D01*
X167834280Y-82967529D02*
X167268595Y-82401844D01*
X168157529Y-82644280D01*
X167591844Y-82078595D01*
X168426903Y-82374906D02*
X167861218Y-81809221D01*
X167995905Y-81674534D01*
X168103654Y-81620659D01*
X168211404Y-81620659D01*
X168292216Y-81647597D01*
X168426903Y-81728409D01*
X168507715Y-81809221D01*
X168588528Y-81943908D01*
X168615465Y-82024720D01*
X168615465Y-82132470D01*
X168561590Y-82240219D01*
X168426903Y-82374906D01*
X141353096Y-47111218D02*
X141272284Y-47138155D01*
X141191471Y-47218967D01*
X141137597Y-47326717D01*
X141137597Y-47434467D01*
X141164534Y-47515279D01*
X141245346Y-47649966D01*
X141326158Y-47730778D01*
X141460845Y-47811590D01*
X141541658Y-47838528D01*
X141649407Y-47838528D01*
X141757157Y-47784653D01*
X141811032Y-47730778D01*
X141864906Y-47623028D01*
X141864906Y-47569154D01*
X141676345Y-47380592D01*
X141568595Y-47488341D01*
X142161218Y-47380592D02*
X141595532Y-46814906D01*
X141811032Y-46599407D01*
X141891844Y-46572470D01*
X141945719Y-46572470D01*
X142026531Y-46599407D01*
X142107343Y-46680219D01*
X142134280Y-46761032D01*
X142134280Y-46814906D01*
X142107343Y-46895719D01*
X141891844Y-47111218D01*
X142188155Y-46330033D02*
X142188155Y-46276158D01*
X142215093Y-46195346D01*
X142349780Y-46060659D01*
X142430592Y-46033722D01*
X142484467Y-46033722D01*
X142565279Y-46060659D01*
X142619154Y-46114534D01*
X142673028Y-46222284D01*
X142673028Y-46868781D01*
X143023215Y-46518595D01*
X167037722Y-60090592D02*
X166956910Y-60117529D01*
X166876097Y-60198341D01*
X166822223Y-60306091D01*
X166822223Y-60413841D01*
X166849160Y-60494653D01*
X166929972Y-60629340D01*
X167010784Y-60710152D01*
X167145471Y-60790964D01*
X167226284Y-60817902D01*
X167334033Y-60817902D01*
X167441783Y-60764027D01*
X167495658Y-60710152D01*
X167549532Y-60602402D01*
X167549532Y-60548528D01*
X167360971Y-60359966D01*
X167253221Y-60467715D01*
X167845844Y-60359966D02*
X167280158Y-59794280D01*
X167495658Y-59578781D01*
X167576470Y-59551844D01*
X167630345Y-59551844D01*
X167711157Y-59578781D01*
X167791969Y-59659593D01*
X167818906Y-59740406D01*
X167818906Y-59794280D01*
X167791969Y-59875093D01*
X167576470Y-60090592D01*
X167872781Y-59309407D02*
X167872781Y-59255532D01*
X167899719Y-59174720D01*
X168034406Y-59040033D01*
X168115218Y-59013096D01*
X168169093Y-59013096D01*
X168249905Y-59040033D01*
X168303780Y-59093908D01*
X168357654Y-59201658D01*
X168357654Y-59848155D01*
X168707841Y-59497969D01*
X168330717Y-58743722D02*
X168707841Y-58366598D01*
X169031089Y-59174720D01*
X167026158Y-44598155D02*
X166945346Y-44625093D01*
X166864534Y-44705905D01*
X166810659Y-44813654D01*
X166810659Y-44921404D01*
X166837597Y-45002216D01*
X166918409Y-45136903D01*
X166999221Y-45217715D01*
X167133908Y-45298528D01*
X167214720Y-45325465D01*
X167322470Y-45325465D01*
X167430219Y-45271590D01*
X167484094Y-45217715D01*
X167537969Y-45109966D01*
X167537969Y-45056091D01*
X167349407Y-44867529D01*
X167241658Y-44975279D01*
X167834280Y-44867529D02*
X167268595Y-44301844D01*
X168157529Y-44544280D01*
X167591844Y-43978595D01*
X168426903Y-44274906D02*
X167861218Y-43709221D01*
X167995905Y-43574534D01*
X168103654Y-43520659D01*
X168211404Y-43520659D01*
X168292216Y-43547597D01*
X168426903Y-43628409D01*
X168507715Y-43709221D01*
X168588528Y-43843908D01*
X168615465Y-43924720D01*
X168615465Y-44032470D01*
X168561590Y-44140219D01*
X168426903Y-44274906D01*
X141453096Y-49651218D02*
X141372284Y-49678155D01*
X141291471Y-49758967D01*
X141237597Y-49866717D01*
X141237597Y-49974467D01*
X141264534Y-50055279D01*
X141345346Y-50189966D01*
X141426158Y-50270778D01*
X141560845Y-50351590D01*
X141641658Y-50378528D01*
X141749407Y-50378528D01*
X141857157Y-50324653D01*
X141911032Y-50270778D01*
X141964906Y-50163028D01*
X141964906Y-50109154D01*
X141776345Y-49920592D01*
X141668595Y-50028341D01*
X142261218Y-49920592D02*
X141695532Y-49354906D01*
X141911032Y-49139407D01*
X141991844Y-49112470D01*
X142045719Y-49112470D01*
X142126531Y-49139407D01*
X142207343Y-49220219D01*
X142234280Y-49301032D01*
X142234280Y-49354906D01*
X142207343Y-49435719D01*
X141991844Y-49651218D01*
X142207343Y-48843096D02*
X142557529Y-48492910D01*
X142584467Y-48896971D01*
X142665279Y-48816158D01*
X142746091Y-48789221D01*
X142799966Y-48789221D01*
X142880778Y-48816158D01*
X143015465Y-48950845D01*
X143042402Y-49031658D01*
X143042402Y-49085532D01*
X143015465Y-49166345D01*
X142853841Y-49327969D01*
X142773028Y-49354906D01*
X142719154Y-49354906D01*
X140929722Y-88020592D02*
X140848910Y-88047529D01*
X140768097Y-88128341D01*
X140714223Y-88236091D01*
X140714223Y-88343841D01*
X140741160Y-88424653D01*
X140821972Y-88559340D01*
X140902784Y-88640152D01*
X141037471Y-88720964D01*
X141118284Y-88747902D01*
X141226033Y-88747902D01*
X141333783Y-88694027D01*
X141387658Y-88640152D01*
X141441532Y-88532402D01*
X141441532Y-88478528D01*
X141252971Y-88289966D01*
X141145221Y-88397715D01*
X141737844Y-88289966D02*
X141172158Y-87724280D01*
X141387658Y-87508781D01*
X141468470Y-87481844D01*
X141522345Y-87481844D01*
X141603157Y-87508781D01*
X141683969Y-87589593D01*
X141710906Y-87670406D01*
X141710906Y-87724280D01*
X141683969Y-87805093D01*
X141468470Y-88020592D01*
X142599841Y-87427969D02*
X142276592Y-87751218D01*
X142438216Y-87589593D02*
X141872531Y-87023908D01*
X141899468Y-87158595D01*
X141899468Y-87266345D01*
X141872531Y-87347157D01*
X142545966Y-86350473D02*
X142276592Y-86619847D01*
X142519028Y-86916158D01*
X142519028Y-86862284D01*
X142545966Y-86781471D01*
X142680653Y-86646784D01*
X142761465Y-86619847D01*
X142815340Y-86619847D01*
X142896152Y-86646784D01*
X143030839Y-86781471D01*
X143057776Y-86862284D01*
X143057776Y-86916158D01*
X143030839Y-86996971D01*
X142896152Y-87131658D01*
X142815340Y-87158595D01*
X142761465Y-87158595D01*
X141453096Y-39491218D02*
X141372284Y-39518155D01*
X141291471Y-39598967D01*
X141237597Y-39706717D01*
X141237597Y-39814467D01*
X141264534Y-39895279D01*
X141345346Y-40029966D01*
X141426158Y-40110778D01*
X141560845Y-40191590D01*
X141641658Y-40218528D01*
X141749407Y-40218528D01*
X141857157Y-40164653D01*
X141911032Y-40110778D01*
X141964906Y-40003028D01*
X141964906Y-39949154D01*
X141776345Y-39760592D01*
X141668595Y-39868341D01*
X142261218Y-39760592D02*
X141695532Y-39194906D01*
X141911032Y-38979407D01*
X141991844Y-38952470D01*
X142045719Y-38952470D01*
X142126531Y-38979407D01*
X142207343Y-39060219D01*
X142234280Y-39141032D01*
X142234280Y-39194906D01*
X142207343Y-39275719D01*
X141991844Y-39491218D01*
X142368967Y-38521471D02*
X142422842Y-38467597D01*
X142503654Y-38440659D01*
X142557529Y-38440659D01*
X142638341Y-38467597D01*
X142773028Y-38548409D01*
X142907715Y-38683096D01*
X142988528Y-38817783D01*
X143015465Y-38898595D01*
X143015465Y-38952470D01*
X142988528Y-39033282D01*
X142934653Y-39087157D01*
X142853841Y-39114094D01*
X142799966Y-39114094D01*
X142719154Y-39087157D01*
X142584467Y-39006345D01*
X142449780Y-38871658D01*
X142368967Y-38736971D01*
X142342030Y-38656158D01*
X142342030Y-38602284D01*
X142368967Y-38521471D01*
X140929722Y-80400592D02*
X140848910Y-80427529D01*
X140768097Y-80508341D01*
X140714223Y-80616091D01*
X140714223Y-80723841D01*
X140741160Y-80804653D01*
X140821972Y-80939340D01*
X140902784Y-81020152D01*
X141037471Y-81100964D01*
X141118284Y-81127902D01*
X141226033Y-81127902D01*
X141333783Y-81074027D01*
X141387658Y-81020152D01*
X141441532Y-80912402D01*
X141441532Y-80858528D01*
X141252971Y-80669966D01*
X141145221Y-80777715D01*
X141737844Y-80669966D02*
X141172158Y-80104280D01*
X141387658Y-79888781D01*
X141468470Y-79861844D01*
X141522345Y-79861844D01*
X141603157Y-79888781D01*
X141683969Y-79969593D01*
X141710906Y-80050406D01*
X141710906Y-80104280D01*
X141683969Y-80185093D01*
X141468470Y-80400592D01*
X142599841Y-79807969D02*
X142276592Y-80131218D01*
X142438216Y-79969593D02*
X141872531Y-79403908D01*
X141899468Y-79538595D01*
X141899468Y-79646345D01*
X141872531Y-79727157D01*
X142222717Y-79053722D02*
X142572903Y-78703536D01*
X142599841Y-79107597D01*
X142680653Y-79026784D01*
X142761465Y-78999847D01*
X142815340Y-78999847D01*
X142896152Y-79026784D01*
X143030839Y-79161471D01*
X143057776Y-79242284D01*
X143057776Y-79296158D01*
X143030839Y-79376971D01*
X142869215Y-79538595D01*
X142788402Y-79565532D01*
X142734528Y-79565532D01*
X141453096Y-54731218D02*
X141372284Y-54758155D01*
X141291471Y-54838967D01*
X141237597Y-54946717D01*
X141237597Y-55054467D01*
X141264534Y-55135279D01*
X141345346Y-55269966D01*
X141426158Y-55350778D01*
X141560845Y-55431590D01*
X141641658Y-55458528D01*
X141749407Y-55458528D01*
X141857157Y-55404653D01*
X141911032Y-55350778D01*
X141964906Y-55243028D01*
X141964906Y-55189154D01*
X141776345Y-55000592D01*
X141668595Y-55108341D01*
X142261218Y-55000592D02*
X141695532Y-54434906D01*
X141911032Y-54219407D01*
X141991844Y-54192470D01*
X142045719Y-54192470D01*
X142126531Y-54219407D01*
X142207343Y-54300219D01*
X142234280Y-54381032D01*
X142234280Y-54434906D01*
X142207343Y-54515719D01*
X141991844Y-54731218D01*
X142530592Y-53599847D02*
X142261218Y-53869221D01*
X142503654Y-54165532D01*
X142503654Y-54111658D01*
X142530592Y-54030845D01*
X142665279Y-53896158D01*
X142746091Y-53869221D01*
X142799966Y-53869221D01*
X142880778Y-53896158D01*
X143015465Y-54030845D01*
X143042402Y-54111658D01*
X143042402Y-54165532D01*
X143015465Y-54246345D01*
X142880778Y-54381032D01*
X142799966Y-54407969D01*
X142746091Y-54407969D01*
X167094788Y-53033773D02*
X167364162Y-52764399D01*
X167202537Y-53249272D02*
X166825414Y-52495025D01*
X167579661Y-52872149D01*
X167768223Y-52683587D02*
X167202537Y-52117902D01*
X167337224Y-51983215D01*
X167444974Y-51929340D01*
X167552723Y-51929340D01*
X167633536Y-51956277D01*
X167768223Y-52037089D01*
X167849035Y-52117902D01*
X167929847Y-52252589D01*
X167956784Y-52333401D01*
X167956784Y-52441150D01*
X167902910Y-52548900D01*
X167768223Y-52683587D01*
X168603282Y-51740778D02*
X168603282Y-51794653D01*
X168549407Y-51902402D01*
X168495532Y-51956277D01*
X168387783Y-52010152D01*
X168280033Y-52010152D01*
X168199221Y-51983215D01*
X168064534Y-51902402D01*
X167983722Y-51821590D01*
X167902910Y-51686903D01*
X167875972Y-51606091D01*
X167875972Y-51498341D01*
X167929847Y-51390592D01*
X167983722Y-51336717D01*
X168091471Y-51282842D01*
X168145346Y-51282842D01*
X168818781Y-51740778D02*
X169249780Y-51309780D01*
X168684094Y-50636345D02*
X169438341Y-51013468D01*
X169061218Y-50259221D01*
X170138714Y-50313096D02*
X169680778Y-50232284D01*
X169815465Y-50636345D02*
X169249780Y-50070659D01*
X169465279Y-49855160D01*
X169546091Y-49828223D01*
X169599966Y-49828223D01*
X169680778Y-49855160D01*
X169761590Y-49935972D01*
X169788528Y-50016784D01*
X169788528Y-50070659D01*
X169761590Y-50151471D01*
X169546091Y-50366971D01*
X170084839Y-49774348D02*
X170273401Y-49585786D01*
X170650524Y-49801285D02*
X170381150Y-50070659D01*
X169815465Y-49504974D01*
X170084839Y-49235600D01*
X170785211Y-49073975D02*
X170596650Y-49262537D01*
X170892961Y-49558849D02*
X170327276Y-48993163D01*
X170596650Y-48723789D01*
X167037722Y-88020592D02*
X166956910Y-88047529D01*
X166876097Y-88128341D01*
X166822223Y-88236091D01*
X166822223Y-88343841D01*
X166849160Y-88424653D01*
X166929972Y-88559340D01*
X167010784Y-88640152D01*
X167145471Y-88720964D01*
X167226284Y-88747902D01*
X167334033Y-88747902D01*
X167441783Y-88694027D01*
X167495658Y-88640152D01*
X167549532Y-88532402D01*
X167549532Y-88478528D01*
X167360971Y-88289966D01*
X167253221Y-88397715D01*
X167845844Y-88289966D02*
X167280158Y-87724280D01*
X167495658Y-87508781D01*
X167576470Y-87481844D01*
X167630345Y-87481844D01*
X167711157Y-87508781D01*
X167791969Y-87589593D01*
X167818906Y-87670406D01*
X167818906Y-87724280D01*
X167791969Y-87805093D01*
X167576470Y-88020592D01*
X168707841Y-87427969D02*
X168384592Y-87751218D01*
X168546216Y-87589593D02*
X167980531Y-87023908D01*
X168007468Y-87158595D01*
X168007468Y-87266345D01*
X167980531Y-87347157D01*
X168627028Y-86377410D02*
X168519279Y-86485160D01*
X168492341Y-86565972D01*
X168492341Y-86619847D01*
X168519279Y-86754534D01*
X168600091Y-86889221D01*
X168815590Y-87104720D01*
X168896402Y-87131658D01*
X168950277Y-87131658D01*
X169031089Y-87104720D01*
X169138839Y-86996971D01*
X169165776Y-86916158D01*
X169165776Y-86862284D01*
X169138839Y-86781471D01*
X169004152Y-86646784D01*
X168923340Y-86619847D01*
X168869465Y-86619847D01*
X168788653Y-86646784D01*
X168680903Y-86754534D01*
X168653966Y-86835346D01*
X168653966Y-86889221D01*
X168680903Y-86970033D01*
X167037722Y-62620592D02*
X166956910Y-62647529D01*
X166876097Y-62728341D01*
X166822223Y-62836091D01*
X166822223Y-62943841D01*
X166849160Y-63024653D01*
X166929972Y-63159340D01*
X167010784Y-63240152D01*
X167145471Y-63320964D01*
X167226284Y-63347902D01*
X167334033Y-63347902D01*
X167441783Y-63294027D01*
X167495658Y-63240152D01*
X167549532Y-63132402D01*
X167549532Y-63078528D01*
X167360971Y-62889966D01*
X167253221Y-62997715D01*
X167845844Y-62889966D02*
X167280158Y-62324280D01*
X167495658Y-62108781D01*
X167576470Y-62081844D01*
X167630345Y-62081844D01*
X167711157Y-62108781D01*
X167791969Y-62189593D01*
X167818906Y-62270406D01*
X167818906Y-62324280D01*
X167791969Y-62405093D01*
X167576470Y-62620592D01*
X167872781Y-61839407D02*
X167872781Y-61785532D01*
X167899719Y-61704720D01*
X168034406Y-61570033D01*
X168115218Y-61543096D01*
X168169093Y-61543096D01*
X168249905Y-61570033D01*
X168303780Y-61623908D01*
X168357654Y-61731658D01*
X168357654Y-62378155D01*
X168707841Y-62027969D01*
X168627028Y-60977410D02*
X168519279Y-61085160D01*
X168492341Y-61165972D01*
X168492341Y-61219847D01*
X168519279Y-61354534D01*
X168600091Y-61489221D01*
X168815590Y-61704720D01*
X168896402Y-61731658D01*
X168950277Y-61731658D01*
X169031089Y-61704720D01*
X169138839Y-61596971D01*
X169165776Y-61516158D01*
X169165776Y-61462284D01*
X169138839Y-61381471D01*
X169004152Y-61246784D01*
X168923340Y-61219847D01*
X168869465Y-61219847D01*
X168788653Y-61246784D01*
X168680903Y-61354534D01*
X168653966Y-61435346D01*
X168653966Y-61489221D01*
X168680903Y-61570033D01*
X167091597Y-58240964D02*
X167360971Y-57971590D01*
X167199346Y-58456463D02*
X166822223Y-57702216D01*
X167576470Y-58079340D01*
X167522595Y-57055719D02*
X167441783Y-57082656D01*
X167360971Y-57163468D01*
X167307096Y-57271218D01*
X167307096Y-57378967D01*
X167334033Y-57459780D01*
X167414845Y-57594467D01*
X167495658Y-57675279D01*
X167630345Y-57756091D01*
X167711157Y-57783028D01*
X167818906Y-57783028D01*
X167926656Y-57729154D01*
X167980531Y-57675279D01*
X168034406Y-57567529D01*
X168034406Y-57513654D01*
X167845844Y-57325093D01*
X167738094Y-57432842D01*
X168330717Y-57325093D02*
X167765032Y-56759407D01*
X168653966Y-57001844D01*
X168088280Y-56436158D01*
X168923340Y-56732470D02*
X168357654Y-56166784D01*
X168492341Y-56032097D01*
X168600091Y-55978223D01*
X168707841Y-55978223D01*
X168788653Y-56005160D01*
X168923340Y-56085972D01*
X169004152Y-56166784D01*
X169084964Y-56301471D01*
X169111902Y-56382284D01*
X169111902Y-56490033D01*
X169058027Y-56597783D01*
X168923340Y-56732470D01*
X167026158Y-69998155D02*
X166945346Y-70025093D01*
X166864534Y-70105905D01*
X166810659Y-70213654D01*
X166810659Y-70321404D01*
X166837597Y-70402216D01*
X166918409Y-70536903D01*
X166999221Y-70617715D01*
X167133908Y-70698528D01*
X167214720Y-70725465D01*
X167322470Y-70725465D01*
X167430219Y-70671590D01*
X167484094Y-70617715D01*
X167537969Y-70509966D01*
X167537969Y-70456091D01*
X167349407Y-70267529D01*
X167241658Y-70375279D01*
X167834280Y-70267529D02*
X167268595Y-69701844D01*
X168157529Y-69944280D01*
X167591844Y-69378595D01*
X168426903Y-69674906D02*
X167861218Y-69109221D01*
X167995905Y-68974534D01*
X168103654Y-68920659D01*
X168211404Y-68920659D01*
X168292216Y-68947597D01*
X168426903Y-69028409D01*
X168507715Y-69109221D01*
X168588528Y-69243908D01*
X168615465Y-69324720D01*
X168615465Y-69432470D01*
X168561590Y-69540219D01*
X168426903Y-69674906D01*
X166893129Y-40027309D02*
X167647377Y-40404433D01*
X167270253Y-39650186D01*
X167916751Y-39542436D02*
X168024500Y-39488561D01*
X168078375Y-39488561D01*
X168159187Y-39515499D01*
X168240000Y-39596311D01*
X168266937Y-39677123D01*
X168266937Y-39730998D01*
X168240000Y-39811810D01*
X168024500Y-40027309D01*
X167458815Y-39461624D01*
X167647377Y-39273062D01*
X167728189Y-39246125D01*
X167782064Y-39246125D01*
X167862876Y-39273062D01*
X167916751Y-39326937D01*
X167943688Y-39407749D01*
X167943688Y-39461624D01*
X167916751Y-39542436D01*
X167728189Y-39730998D01*
X168024500Y-38895938D02*
X168482436Y-39353874D01*
X168563248Y-39380812D01*
X168617123Y-39380812D01*
X168697935Y-39353874D01*
X168805685Y-39246125D01*
X168832622Y-39165312D01*
X168832622Y-39111438D01*
X168805685Y-39030625D01*
X168347749Y-38572690D01*
X169128934Y-38869001D02*
X169236683Y-38815126D01*
X169371370Y-38680439D01*
X169398308Y-38599627D01*
X169398308Y-38545752D01*
X169371370Y-38464940D01*
X169317496Y-38411065D01*
X169236683Y-38384128D01*
X169182809Y-38384128D01*
X169101996Y-38411065D01*
X168967309Y-38491877D01*
X168886497Y-38518815D01*
X168832622Y-38518815D01*
X168751810Y-38491877D01*
X168697935Y-38438003D01*
X168670998Y-38357190D01*
X168670998Y-38303316D01*
X168697935Y-38222503D01*
X168832622Y-38087816D01*
X168940372Y-38033942D01*
X167037722Y-75320592D02*
X166956910Y-75347529D01*
X166876097Y-75428341D01*
X166822223Y-75536091D01*
X166822223Y-75643841D01*
X166849160Y-75724653D01*
X166929972Y-75859340D01*
X167010784Y-75940152D01*
X167145471Y-76020964D01*
X167226284Y-76047902D01*
X167334033Y-76047902D01*
X167441783Y-75994027D01*
X167495658Y-75940152D01*
X167549532Y-75832402D01*
X167549532Y-75778528D01*
X167360971Y-75589966D01*
X167253221Y-75697715D01*
X167845844Y-75589966D02*
X167280158Y-75024280D01*
X167495658Y-74808781D01*
X167576470Y-74781844D01*
X167630345Y-74781844D01*
X167711157Y-74808781D01*
X167791969Y-74889593D01*
X167818906Y-74970406D01*
X167818906Y-75024280D01*
X167791969Y-75105093D01*
X167576470Y-75320592D01*
X167872781Y-74539407D02*
X167872781Y-74485532D01*
X167899719Y-74404720D01*
X168034406Y-74270033D01*
X168115218Y-74243096D01*
X168169093Y-74243096D01*
X168249905Y-74270033D01*
X168303780Y-74323908D01*
X168357654Y-74431658D01*
X168357654Y-75078155D01*
X168707841Y-74727969D01*
X168492341Y-73812097D02*
X168546216Y-73758223D01*
X168627028Y-73731285D01*
X168680903Y-73731285D01*
X168761715Y-73758223D01*
X168896402Y-73839035D01*
X169031089Y-73973722D01*
X169111902Y-74108409D01*
X169138839Y-74189221D01*
X169138839Y-74243096D01*
X169111902Y-74323908D01*
X169058027Y-74377783D01*
X168977215Y-74404720D01*
X168923340Y-74404720D01*
X168842528Y-74377783D01*
X168707841Y-74296971D01*
X168573154Y-74162284D01*
X168492341Y-74027597D01*
X168465404Y-73946784D01*
X168465404Y-73892910D01*
X168492341Y-73812097D01*
%TO.C,SW3*%
X94010666Y-80014761D02*
X94153523Y-80062380D01*
X94391619Y-80062380D01*
X94486857Y-80014761D01*
X94534476Y-79967142D01*
X94582095Y-79871904D01*
X94582095Y-79776666D01*
X94534476Y-79681428D01*
X94486857Y-79633809D01*
X94391619Y-79586190D01*
X94201142Y-79538571D01*
X94105904Y-79490952D01*
X94058285Y-79443333D01*
X94010666Y-79348095D01*
X94010666Y-79252857D01*
X94058285Y-79157619D01*
X94105904Y-79110000D01*
X94201142Y-79062380D01*
X94439238Y-79062380D01*
X94582095Y-79110000D01*
X94915428Y-79062380D02*
X95153523Y-80062380D01*
X95344000Y-79348095D01*
X95534476Y-80062380D01*
X95772571Y-79062380D01*
X96058285Y-79062380D02*
X96677333Y-79062380D01*
X96344000Y-79443333D01*
X96486857Y-79443333D01*
X96582095Y-79490952D01*
X96629714Y-79538571D01*
X96677333Y-79633809D01*
X96677333Y-79871904D01*
X96629714Y-79967142D01*
X96582095Y-80014761D01*
X96486857Y-80062380D01*
X96201142Y-80062380D01*
X96105904Y-80014761D01*
X96058285Y-79967142D01*
%TO.C,RV3*%
X117384380Y-76875238D02*
X116908190Y-77208571D01*
X117384380Y-77446666D02*
X116384380Y-77446666D01*
X116384380Y-77065714D01*
X116432000Y-76970476D01*
X116479619Y-76922857D01*
X116574857Y-76875238D01*
X116717714Y-76875238D01*
X116812952Y-76922857D01*
X116860571Y-76970476D01*
X116908190Y-77065714D01*
X116908190Y-77446666D01*
X116384380Y-76589523D02*
X117384380Y-76256190D01*
X116384380Y-75922857D01*
X116384380Y-75684761D02*
X116384380Y-75065714D01*
X116765333Y-75399047D01*
X116765333Y-75256190D01*
X116812952Y-75160952D01*
X116860571Y-75113333D01*
X116955809Y-75065714D01*
X117193904Y-75065714D01*
X117289142Y-75113333D01*
X117336761Y-75160952D01*
X117384380Y-75256190D01*
X117384380Y-75541904D01*
X117336761Y-75637142D01*
X117289142Y-75684761D01*
%TO.C,RV2*%
X105192380Y-76875238D02*
X104716190Y-77208571D01*
X105192380Y-77446666D02*
X104192380Y-77446666D01*
X104192380Y-77065714D01*
X104240000Y-76970476D01*
X104287619Y-76922857D01*
X104382857Y-76875238D01*
X104525714Y-76875238D01*
X104620952Y-76922857D01*
X104668571Y-76970476D01*
X104716190Y-77065714D01*
X104716190Y-77446666D01*
X104192380Y-76589523D02*
X105192380Y-76256190D01*
X104192380Y-75922857D01*
X104287619Y-75637142D02*
X104240000Y-75589523D01*
X104192380Y-75494285D01*
X104192380Y-75256190D01*
X104240000Y-75160952D01*
X104287619Y-75113333D01*
X104382857Y-75065714D01*
X104478095Y-75065714D01*
X104620952Y-75113333D01*
X105192380Y-75684761D01*
X105192380Y-75065714D01*
D11*
%TO.C,SW2*%
X101537000Y-64020000D02*
X101537000Y-67160000D01*
X89237000Y-59440000D02*
X101537000Y-59440000D01*
X101537000Y-71740000D02*
X89237000Y-71740000D01*
X101537000Y-59440000D02*
X101537000Y-62160000D01*
X101537000Y-69020000D02*
X101537000Y-71740000D01*
X89237000Y-71740000D02*
X89237000Y-69020000D01*
X89237000Y-62160000D02*
X89237000Y-59440000D01*
X89237000Y-67160000D02*
X89237000Y-64020000D01*
X100066050Y-65630000D02*
G75*
G03*
X100066050Y-65630000I-4579050J0D01*
G01*
%TO.C,SW4*%
X101283000Y-101800000D02*
X101283000Y-104520000D01*
X88983000Y-114100000D02*
X88983000Y-111380000D01*
X101283000Y-114100000D02*
X88983000Y-114100000D01*
X88983000Y-101800000D02*
X101283000Y-101800000D01*
X101283000Y-111380000D02*
X101283000Y-114100000D01*
X88983000Y-104520000D02*
X88983000Y-101800000D01*
X88983000Y-109520000D02*
X88983000Y-106380000D01*
X101283000Y-106380000D02*
X101283000Y-109520000D01*
X99812050Y-107990000D02*
G75*
G03*
X99812050Y-107990000I-4579050J0D01*
G01*
%TO.C,RV1*%
X130000000Y-43244000D02*
X130000000Y-38660000D01*
X139240000Y-42044000D02*
X139240000Y-38660000D01*
X130000000Y-38660000D02*
X132047000Y-38660000D01*
X133370000Y-114705000D02*
X132870000Y-114205000D01*
X133870000Y-47030000D02*
X134620000Y-46280000D01*
X132370000Y-114705000D02*
X133370000Y-114705000D01*
X134620000Y-106280000D02*
X135370000Y-105530000D01*
X134620000Y-46280000D02*
X135370000Y-47030000D01*
X133870000Y-105530000D02*
X134620000Y-106280000D01*
X134620000Y-106280000D02*
X134620000Y-46280000D01*
X137193000Y-113900000D02*
X139240000Y-113900000D01*
X133120000Y-46280000D02*
X136120000Y-46280000D01*
X139240000Y-113900000D02*
X139240000Y-110515000D01*
X139240000Y-107244000D02*
X139240000Y-45315000D01*
X130000000Y-113900000D02*
X130000000Y-109315000D01*
X130000000Y-113900000D02*
X131695000Y-113900000D01*
X133120000Y-106280000D02*
X136120000Y-106280000D01*
X130000000Y-106044000D02*
X130000000Y-46515000D01*
X132870000Y-114205000D02*
X132370000Y-114705000D01*
X134045000Y-113900000D02*
X135548000Y-113900000D01*
X133693000Y-38660000D02*
X139240000Y-38660000D01*
%TO.C,SW1*%
X88856000Y-45980000D02*
X88856000Y-42840000D01*
X88856000Y-40980000D02*
X88856000Y-38260000D01*
X88856000Y-38260000D02*
X101156000Y-38260000D01*
X101156000Y-47840000D02*
X101156000Y-50560000D01*
X101156000Y-38260000D02*
X101156000Y-40980000D01*
X88856000Y-50560000D02*
X88856000Y-47840000D01*
X101156000Y-42840000D02*
X101156000Y-45980000D01*
X101156000Y-50560000D02*
X88856000Y-50560000D01*
X99685050Y-44450000D02*
G75*
G03*
X99685050Y-44450000I-4579050J0D01*
G01*
%TO.C,U1*%
X165440000Y-53100000D02*
X165440000Y-53500000D01*
X144440000Y-38000000D02*
X144440000Y-38300000D01*
X165440000Y-50600000D02*
X165440000Y-51000000D01*
X144440000Y-76000000D02*
X144440000Y-76400000D01*
X165440000Y-38000000D02*
X165440000Y-38300000D01*
X144440000Y-58200000D02*
X144440000Y-58600000D01*
X165440000Y-70900000D02*
X165440000Y-71300000D01*
X144440000Y-43000000D02*
X144440000Y-43400000D01*
X144440000Y-70900000D02*
X144440000Y-71300000D01*
X144440000Y-86200000D02*
X144440000Y-86600000D01*
X147447000Y-40667000D02*
X147447000Y-38000000D01*
X144440000Y-48100000D02*
X144440000Y-48500000D01*
X144440000Y-81100000D02*
X144440000Y-81500000D01*
X165440000Y-73500000D02*
X165440000Y-73900000D01*
X144440000Y-45500000D02*
X144440000Y-45900000D01*
X165440000Y-78600000D02*
X165440000Y-79000000D01*
X165440000Y-86200000D02*
X165440000Y-86600000D01*
X144440000Y-63300000D02*
X144440000Y-63700000D01*
X165440000Y-81100000D02*
X165440000Y-81500000D01*
X151240000Y-89000000D02*
X144440000Y-89000000D01*
X144440000Y-68400000D02*
X144440000Y-68800000D01*
X144440000Y-50600000D02*
X144440000Y-51000000D01*
X156040000Y-89000000D02*
X156440000Y-89000000D01*
X165440000Y-40400000D02*
X165440000Y-40800000D01*
X165440000Y-60800000D02*
X165440000Y-61200000D01*
X165440000Y-83600000D02*
X165440000Y-84000000D01*
X165440000Y-48100000D02*
X165440000Y-48500000D01*
X165440000Y-63300000D02*
X165440000Y-63700000D01*
X144440000Y-38000000D02*
X165440000Y-38000000D01*
X144440000Y-55700000D02*
X144440000Y-56100000D01*
X144440000Y-78600000D02*
X144440000Y-79000000D01*
X165440000Y-58200000D02*
X165440000Y-58600000D01*
X144440000Y-40667000D02*
X147447000Y-40667000D01*
X165440000Y-89000000D02*
X158640000Y-89000000D01*
X165440000Y-65800000D02*
X165440000Y-66200000D01*
X144440000Y-65800000D02*
X144440000Y-66200000D01*
X144440000Y-73500000D02*
X144440000Y-73900000D01*
X144440000Y-53100000D02*
X144440000Y-53500000D01*
X144440000Y-83600000D02*
X144440000Y-84000000D01*
X165440000Y-68400000D02*
X165440000Y-68800000D01*
X165440000Y-45500000D02*
X165440000Y-45900000D01*
X165440000Y-43000000D02*
X165440000Y-43400000D01*
X144440000Y-60800000D02*
X144440000Y-61200000D01*
X165440000Y-76000000D02*
X165440000Y-76400000D01*
X153440000Y-89000000D02*
X153840000Y-89000000D01*
X144440000Y-40400000D02*
X144440000Y-40800000D01*
X165440000Y-55700000D02*
X165440000Y-56100000D01*
%TO.C,SW3*%
X89364000Y-88340000D02*
X89364000Y-85200000D01*
X101664000Y-85200000D02*
X101664000Y-88340000D01*
X101664000Y-92920000D02*
X89364000Y-92920000D01*
X101664000Y-80620000D02*
X101664000Y-83340000D01*
X101664000Y-90200000D02*
X101664000Y-92920000D01*
X89364000Y-80620000D02*
X101664000Y-80620000D01*
X89364000Y-83340000D02*
X89364000Y-80620000D01*
X89364000Y-92920000D02*
X89364000Y-90200000D01*
X100193050Y-86810000D02*
G75*
G03*
X100193050Y-86810000I-4579050J0D01*
G01*
%TO.C,RV3*%
X122682000Y-106280000D02*
X123432000Y-105530000D01*
X120432000Y-114705000D02*
X121432000Y-114705000D01*
X122682000Y-46280000D02*
X123432000Y-47030000D01*
X122107000Y-113900000D02*
X123610000Y-113900000D01*
X127302000Y-107244000D02*
X127302000Y-45315000D01*
X118062000Y-113900000D02*
X119757000Y-113900000D01*
X121182000Y-46280000D02*
X124182000Y-46280000D01*
X118062000Y-38660000D02*
X120109000Y-38660000D01*
X127302000Y-113900000D02*
X127302000Y-110515000D01*
X121932000Y-47030000D02*
X122682000Y-46280000D01*
X121432000Y-114705000D02*
X120932000Y-114205000D01*
X121182000Y-106280000D02*
X124182000Y-106280000D01*
X120932000Y-114205000D02*
X120432000Y-114705000D01*
X125255000Y-113900000D02*
X127302000Y-113900000D01*
X121755000Y-38660000D02*
X127302000Y-38660000D01*
X118062000Y-106044000D02*
X118062000Y-46515000D01*
X121932000Y-105530000D02*
X122682000Y-106280000D01*
X127302000Y-42044000D02*
X127302000Y-38660000D01*
X122682000Y-106280000D02*
X122682000Y-46280000D01*
X118062000Y-113900000D02*
X118062000Y-109315000D01*
X118062000Y-43244000D02*
X118062000Y-38660000D01*
%TO.C,RV2*%
X109240000Y-114705000D02*
X108740000Y-114205000D01*
X110490000Y-46280000D02*
X111240000Y-47030000D01*
X110490000Y-106280000D02*
X111240000Y-105530000D01*
X109740000Y-47030000D02*
X110490000Y-46280000D01*
X105870000Y-43244000D02*
X105870000Y-38660000D01*
X115110000Y-42044000D02*
X115110000Y-38660000D01*
X115110000Y-107244000D02*
X115110000Y-45315000D01*
X109915000Y-113900000D02*
X111418000Y-113900000D01*
X105870000Y-113900000D02*
X105870000Y-109315000D01*
X110490000Y-106280000D02*
X110490000Y-46280000D01*
X109740000Y-105530000D02*
X110490000Y-106280000D01*
X105870000Y-38660000D02*
X107917000Y-38660000D01*
X109563000Y-38660000D02*
X115110000Y-38660000D01*
X115110000Y-113900000D02*
X115110000Y-110515000D01*
X108990000Y-106280000D02*
X111990000Y-106280000D01*
X108740000Y-114205000D02*
X108240000Y-114705000D01*
X105870000Y-106044000D02*
X105870000Y-46515000D01*
X108240000Y-114705000D02*
X109240000Y-114705000D01*
X113063000Y-113900000D02*
X115110000Y-113900000D01*
X108990000Y-46280000D02*
X111990000Y-46280000D01*
X105870000Y-113900000D02*
X107565000Y-113900000D01*
%TD*%
%LPC*%
D12*
%TO.C,REF\u002A\u002A*%
X155194000Y-97282000D03*
%TD*%
%TO.C,REF\u002A\u002A*%
X155194000Y-54864000D03*
%TD*%
%TO.C,REF\u002A\u002A*%
X95123000Y-97282000D03*
%TD*%
%TO.C,REF\u002A\u002A*%
X95123000Y-54864000D03*
%TD*%
D13*
%TO.C,SW2*%
X101637000Y-63090000D03*
X89137000Y-63090000D03*
X89137000Y-68090000D03*
X101637000Y-68090000D03*
%TD*%
%TO.C,SW4*%
X101383000Y-105450000D03*
X88883000Y-105450000D03*
X101383000Y-110450000D03*
X88883000Y-110450000D03*
%TD*%
D14*
%TO.C,RV1*%
X132870000Y-113030000D03*
D15*
X136370000Y-113030000D03*
X132870000Y-39530000D03*
D16*
X138820000Y-43680000D03*
X130420000Y-44880000D03*
X130420000Y-107680000D03*
X138820000Y-108880000D03*
%TD*%
D13*
%TO.C,SW1*%
X88756000Y-41910000D03*
X101256000Y-41910000D03*
X88756000Y-46910000D03*
X101256000Y-46910000D03*
%TD*%
D17*
%TO.C,U1*%
X152215000Y-39500000D03*
D18*
X152515000Y-42530000D03*
D17*
X157665000Y-39500000D03*
D18*
X157365000Y-42530000D03*
D19*
X146050000Y-39370000D03*
D20*
X145150000Y-39370000D03*
X145150000Y-41910000D03*
D19*
X146050000Y-41910000D03*
D21*
X146050000Y-44450000D03*
D20*
X145150000Y-44450000D03*
X145150000Y-46990000D03*
D19*
X146050000Y-46990000D03*
D20*
X145150000Y-49530000D03*
D19*
X146050000Y-49530000D03*
X146050000Y-52070000D03*
D20*
X145150000Y-52070000D03*
D19*
X146050000Y-54610000D03*
D20*
X145150000Y-54610000D03*
D21*
X146050000Y-57150000D03*
D20*
X145150000Y-57150000D03*
X145150000Y-59690000D03*
D19*
X146050000Y-59690000D03*
X146050000Y-62230000D03*
D20*
X145150000Y-62230000D03*
X145150000Y-64770000D03*
D19*
X146050000Y-64770000D03*
X146050000Y-67310000D03*
D20*
X145150000Y-67310000D03*
X145150000Y-69850000D03*
D21*
X146050000Y-69850000D03*
D19*
X146050000Y-72390000D03*
D20*
X145150000Y-72390000D03*
X145150000Y-74930000D03*
D19*
X146050000Y-74930000D03*
X146050000Y-77470000D03*
D20*
X145150000Y-77470000D03*
D19*
X146050000Y-80010000D03*
D20*
X145150000Y-80010000D03*
X145150000Y-82550000D03*
D21*
X146050000Y-82550000D03*
D20*
X145150000Y-85090000D03*
D19*
X146050000Y-85090000D03*
X146050000Y-87630000D03*
D20*
X145150000Y-87630000D03*
D19*
X163830000Y-87630000D03*
D20*
X164730000Y-87630000D03*
X164730000Y-85090000D03*
D19*
X163830000Y-85090000D03*
D20*
X164730000Y-82550000D03*
D21*
X163830000Y-82550000D03*
D19*
X163830000Y-80010000D03*
D20*
X164730000Y-80010000D03*
X164730000Y-77470000D03*
D19*
X163830000Y-77470000D03*
X163830000Y-74930000D03*
D20*
X164730000Y-74930000D03*
X164730000Y-72390000D03*
D19*
X163830000Y-72390000D03*
D20*
X164730000Y-69850000D03*
D21*
X163830000Y-69850000D03*
D20*
X164730000Y-67310000D03*
D19*
X163830000Y-67310000D03*
D20*
X164730000Y-64770000D03*
D19*
X163830000Y-64770000D03*
D20*
X164730000Y-62230000D03*
D19*
X163830000Y-62230000D03*
D20*
X164730000Y-59690000D03*
D19*
X163830000Y-59690000D03*
D21*
X163830000Y-57150000D03*
D20*
X164730000Y-57150000D03*
X164730000Y-54610000D03*
D19*
X163830000Y-54610000D03*
D20*
X164730000Y-52070000D03*
D19*
X163830000Y-52070000D03*
D20*
X164730000Y-49530000D03*
D19*
X163830000Y-49530000D03*
D20*
X164730000Y-46990000D03*
D19*
X163830000Y-46990000D03*
D21*
X163830000Y-44450000D03*
D20*
X164730000Y-44450000D03*
X164730000Y-41910000D03*
D19*
X163830000Y-41910000D03*
D20*
X164730000Y-39370000D03*
D19*
X163830000Y-39370000D03*
X152400000Y-87400000D03*
D22*
X152400000Y-88300000D03*
D21*
X154940000Y-87400000D03*
D22*
X154940000Y-88300000D03*
D19*
X157480000Y-87400000D03*
D22*
X157480000Y-88300000D03*
%TD*%
D13*
%TO.C,SW3*%
X101764000Y-84270000D03*
X89264000Y-84270000D03*
X101764000Y-89270000D03*
X89264000Y-89270000D03*
%TD*%
D14*
%TO.C,RV3*%
X120932000Y-113030000D03*
D15*
X124432000Y-113030000D03*
X120932000Y-39530000D03*
D16*
X126882000Y-43680000D03*
X126882000Y-108880000D03*
X118482000Y-44880000D03*
X118482000Y-107680000D03*
%TD*%
D14*
%TO.C,RV2*%
X108740000Y-113030000D03*
D15*
X112240000Y-113030000D03*
X108740000Y-39530000D03*
D16*
X114690000Y-43680000D03*
X106290000Y-107680000D03*
X114690000Y-108880000D03*
X106290000Y-44880000D03*
%TD*%
M02*
