%TF.GenerationSoftware,KiCad,Pcbnew,(6.0.0)*%
%TF.CreationDate,2023-01-12T10:54:33-06:00*%
%TF.ProjectId,deej,6465656a-2e6b-4696-9361-645f70636258,rev?*%
%TF.SameCoordinates,Original*%
%TF.FileFunction,Copper,L1,Top*%
%TF.FilePolarity,Positive*%
%FSLAX46Y46*%
G04 Gerber Fmt 4.6, Leading zero omitted, Abs format (unit mm)*
G04 Created by KiCad (PCBNEW (6.0.0)) date 2023-01-12 10:54:33*
%MOMM*%
%LPD*%
G01*
G04 APERTURE LIST*
%TA.AperFunction,ComponentPad*%
%ADD10O,3.048000X1.850000*%
%TD*%
%TA.AperFunction,ComponentPad*%
%ADD11R,1.750000X1.750000*%
%TD*%
%TA.AperFunction,ComponentPad*%
%ADD12C,1.750000*%
%TD*%
%TA.AperFunction,ComponentPad*%
%ADD13C,2.700000*%
%TD*%
%TA.AperFunction,ComponentPad*%
%ADD14O,1.700000X1.700000*%
%TD*%
%TA.AperFunction,SMDPad,CuDef*%
%ADD15R,3.500000X1.700000*%
%TD*%
%TA.AperFunction,ComponentPad*%
%ADD16R,1.700000X1.700000*%
%TD*%
%TA.AperFunction,SMDPad,CuDef*%
%ADD17R,1.700000X3.500000*%
%TD*%
%TA.AperFunction,Conductor*%
%ADD18C,1.000000*%
%TD*%
G04 APERTURE END LIST*
D10*
%TO.P,SW2,1,1*%
%TO.N,Net-(RV1-Pad1)*%
X101637000Y-63090000D03*
X89137000Y-63090000D03*
%TO.P,SW2,2,2*%
%TO.N,Net-(SW2-Pad2)*%
X89137000Y-68090000D03*
X101637000Y-68090000D03*
%TD*%
%TO.P,SW4,1,1*%
%TO.N,Net-(RV1-Pad1)*%
X101383000Y-105450000D03*
X88883000Y-105450000D03*
%TO.P,SW4,2,2*%
%TO.N,Net-(SW4-Pad2)*%
X101383000Y-110450000D03*
X88883000Y-110450000D03*
%TD*%
D11*
%TO.P,RV1,1,1*%
%TO.N,Net-(RV1-Pad1)*%
X132870000Y-113030000D03*
D12*
%TO.P,RV1,2,2*%
%TO.N,Net-(RV1-Pad2)*%
X136370000Y-113030000D03*
%TO.P,RV1,3,3*%
%TO.N,Net-(RV1-Pad3)*%
X132870000Y-39530000D03*
D13*
%TO.P,RV1,MP*%
%TO.N,N/C*%
X138820000Y-43680000D03*
X130420000Y-44880000D03*
X130420000Y-107680000D03*
X138820000Y-108880000D03*
%TD*%
D10*
%TO.P,SW1,1,1*%
%TO.N,Net-(RV1-Pad1)*%
X88756000Y-41910000D03*
X101256000Y-41910000D03*
%TO.P,SW1,2,2*%
%TO.N,Net-(SW1-Pad2)*%
X88756000Y-46910000D03*
X101256000Y-46910000D03*
%TD*%
D14*
%TO.P,U1,1,GPIO0*%
%TO.N,Net-(SW1-Pad2)*%
X146050000Y-39370000D03*
D15*
X145150000Y-39370000D03*
%TO.P,U1,2,GPIO1*%
%TO.N,Net-(SW2-Pad2)*%
X145150000Y-41910000D03*
D14*
X146050000Y-41910000D03*
D16*
%TO.P,U1,3,GND*%
%TO.N,Net-(RV1-Pad3)*%
X146050000Y-44450000D03*
D15*
X145150000Y-44450000D03*
%TO.P,U1,4,GPIO2*%
%TO.N,Net-(SW3-Pad2)*%
X145150000Y-46990000D03*
D14*
X146050000Y-46990000D03*
D15*
%TO.P,U1,5,GPIO3*%
%TO.N,Net-(SW4-Pad2)*%
X145150000Y-49530000D03*
D14*
X146050000Y-49530000D03*
%TO.P,U1,6,GPIO4*%
%TO.N,unconnected-(U1-Pad6)*%
X146050000Y-52070000D03*
D15*
X145150000Y-52070000D03*
D14*
%TO.P,U1,7,GPIO5*%
%TO.N,unconnected-(U1-Pad7)*%
X146050000Y-54610000D03*
D15*
X145150000Y-54610000D03*
D16*
%TO.P,U1,8,GND*%
%TO.N,unconnected-(U1-Pad8)*%
X146050000Y-57150000D03*
D15*
X145150000Y-57150000D03*
%TO.P,U1,9,GPIO6*%
%TO.N,unconnected-(U1-Pad9)*%
X145150000Y-59690000D03*
D14*
X146050000Y-59690000D03*
%TO.P,U1,10,GPIO7*%
%TO.N,unconnected-(U1-Pad10)*%
X146050000Y-62230000D03*
D15*
X145150000Y-62230000D03*
%TO.P,U1,11,GPIO8*%
%TO.N,unconnected-(U1-Pad11)*%
X145150000Y-64770000D03*
D14*
X146050000Y-64770000D03*
%TO.P,U1,12,GPIO9*%
%TO.N,unconnected-(U1-Pad12)*%
X146050000Y-67310000D03*
D15*
X145150000Y-67310000D03*
%TO.P,U1,13,GND*%
%TO.N,unconnected-(U1-Pad13)*%
X145150000Y-69850000D03*
D16*
X146050000Y-69850000D03*
D14*
%TO.P,U1,14,GPIO10*%
%TO.N,unconnected-(U1-Pad14)*%
X146050000Y-72390000D03*
D15*
X145150000Y-72390000D03*
%TO.P,U1,15,GPIO11*%
%TO.N,unconnected-(U1-Pad15)*%
X145150000Y-74930000D03*
D14*
X146050000Y-74930000D03*
%TO.P,U1,16,GPIO12*%
%TO.N,unconnected-(U1-Pad16)*%
X146050000Y-77470000D03*
D15*
X145150000Y-77470000D03*
D14*
%TO.P,U1,17,GPIO13*%
%TO.N,unconnected-(U1-Pad17)*%
X146050000Y-80010000D03*
D15*
X145150000Y-80010000D03*
%TO.P,U1,18,GND*%
%TO.N,unconnected-(U1-Pad18)*%
X145150000Y-82550000D03*
D16*
X146050000Y-82550000D03*
D15*
%TO.P,U1,19,GPIO14*%
%TO.N,unconnected-(U1-Pad19)*%
X145150000Y-85090000D03*
D14*
X146050000Y-85090000D03*
%TO.P,U1,20,GPIO15*%
%TO.N,unconnected-(U1-Pad20)*%
X146050000Y-87630000D03*
D15*
X145150000Y-87630000D03*
D14*
%TO.P,U1,21,GPIO16*%
%TO.N,unconnected-(U1-Pad21)*%
X163830000Y-87630000D03*
D15*
X164730000Y-87630000D03*
%TO.P,U1,22,GPIO17*%
%TO.N,unconnected-(U1-Pad22)*%
X164730000Y-85090000D03*
D14*
X163830000Y-85090000D03*
D15*
%TO.P,U1,23,GND*%
%TO.N,unconnected-(U1-Pad23)*%
X164730000Y-82550000D03*
D16*
X163830000Y-82550000D03*
D14*
%TO.P,U1,24,GPIO18*%
%TO.N,unconnected-(U1-Pad24)*%
X163830000Y-80010000D03*
D15*
X164730000Y-80010000D03*
%TO.P,U1,25,GPIO19*%
%TO.N,unconnected-(U1-Pad25)*%
X164730000Y-77470000D03*
D14*
X163830000Y-77470000D03*
%TO.P,U1,26,GPIO20*%
%TO.N,unconnected-(U1-Pad26)*%
X163830000Y-74930000D03*
D15*
X164730000Y-74930000D03*
%TO.P,U1,27,GPIO21*%
%TO.N,unconnected-(U1-Pad27)*%
X164730000Y-72390000D03*
D14*
X163830000Y-72390000D03*
D15*
%TO.P,U1,28,GND*%
%TO.N,unconnected-(U1-Pad28)*%
X164730000Y-69850000D03*
D16*
X163830000Y-69850000D03*
D15*
%TO.P,U1,29,GPIO22*%
%TO.N,unconnected-(U1-Pad29)*%
X164730000Y-67310000D03*
D14*
X163830000Y-67310000D03*
D15*
%TO.P,U1,30,RUN*%
%TO.N,unconnected-(U1-Pad30)*%
X164730000Y-64770000D03*
D14*
X163830000Y-64770000D03*
D15*
%TO.P,U1,31,GPIO26_ADC0*%
%TO.N,Net-(RV1-Pad2)*%
X164730000Y-62230000D03*
D14*
X163830000Y-62230000D03*
D15*
%TO.P,U1,32,GPIO27_ADC1*%
%TO.N,Net-(U1-Pad32)*%
X164730000Y-59690000D03*
D14*
X163830000Y-59690000D03*
D16*
%TO.P,U1,33,AGND*%
%TO.N,unconnected-(U1-Pad33)*%
X163830000Y-57150000D03*
D15*
X164730000Y-57150000D03*
%TO.P,U1,34,GPIO28_ADC2*%
%TO.N,Net-(U1-Pad34)*%
X164730000Y-54610000D03*
D14*
X163830000Y-54610000D03*
D15*
%TO.P,U1,35,ADC_VREF*%
%TO.N,unconnected-(U1-Pad35)*%
X164730000Y-52070000D03*
D14*
X163830000Y-52070000D03*
D15*
%TO.P,U1,36,3V3*%
%TO.N,Net-(RV1-Pad1)*%
X164730000Y-49530000D03*
D14*
X163830000Y-49530000D03*
D15*
%TO.P,U1,37,3V3_EN*%
%TO.N,unconnected-(U1-Pad37)*%
X164730000Y-46990000D03*
D14*
X163830000Y-46990000D03*
D16*
%TO.P,U1,38,GND*%
%TO.N,unconnected-(U1-Pad38)*%
X163830000Y-44450000D03*
D15*
X164730000Y-44450000D03*
%TO.P,U1,39,VSYS*%
%TO.N,unconnected-(U1-Pad39)*%
X164730000Y-41910000D03*
D14*
X163830000Y-41910000D03*
D15*
%TO.P,U1,40,VBUS*%
%TO.N,unconnected-(U1-Pad40)*%
X164730000Y-39370000D03*
D14*
X163830000Y-39370000D03*
%TO.P,U1,41,SWCLK*%
%TO.N,unconnected-(U1-Pad41)*%
X152400000Y-87400000D03*
D17*
X152400000Y-88300000D03*
D16*
%TO.P,U1,42,GND*%
%TO.N,unconnected-(U1-Pad42)*%
X154940000Y-87400000D03*
D17*
X154940000Y-88300000D03*
D14*
%TO.P,U1,43,SWDIO*%
%TO.N,unconnected-(U1-Pad43)*%
X157480000Y-87400000D03*
D17*
X157480000Y-88300000D03*
%TD*%
D10*
%TO.P,SW3,1,1*%
%TO.N,Net-(RV1-Pad1)*%
X101764000Y-84270000D03*
X89264000Y-84270000D03*
%TO.P,SW3,2,2*%
%TO.N,Net-(SW3-Pad2)*%
X101764000Y-89270000D03*
X89264000Y-89270000D03*
%TD*%
D11*
%TO.P,RV3,1,1*%
%TO.N,Net-(RV1-Pad1)*%
X120932000Y-113030000D03*
D12*
%TO.P,RV3,2,2*%
%TO.N,Net-(U1-Pad32)*%
X124432000Y-113030000D03*
%TO.P,RV3,3,3*%
%TO.N,Net-(RV1-Pad3)*%
X120932000Y-39530000D03*
D13*
%TO.P,RV3,MP*%
%TO.N,N/C*%
X126882000Y-43680000D03*
X126882000Y-108880000D03*
X118482000Y-44880000D03*
X118482000Y-107680000D03*
%TD*%
D11*
%TO.P,RV2,1,1*%
%TO.N,Net-(RV1-Pad1)*%
X108740000Y-113030000D03*
D12*
%TO.P,RV2,2,2*%
%TO.N,Net-(U1-Pad34)*%
X112240000Y-113030000D03*
%TO.P,RV2,3,3*%
%TO.N,Net-(RV1-Pad3)*%
X108740000Y-39530000D03*
D13*
%TO.P,RV2,MP*%
%TO.N,N/C*%
X114690000Y-43680000D03*
X106290000Y-107680000D03*
X114690000Y-108880000D03*
X106290000Y-44880000D03*
%TD*%
D18*
%TO.N,Net-(RV1-Pad1)*%
X101764000Y-84270000D02*
X89264000Y-84270000D01*
X101383000Y-105450000D02*
X88883000Y-105450000D01*
X101637000Y-63090000D02*
X89137000Y-63090000D01*
X101256000Y-41910000D02*
X88756000Y-41910000D01*
%TO.N,Net-(SW1-Pad2)*%
X146050000Y-39370000D02*
X135256696Y-39370000D01*
X135256696Y-39370000D02*
X133306207Y-41320489D01*
X101256000Y-46910000D02*
X88756000Y-46910000D01*
X101256000Y-46064000D02*
X101256000Y-46910000D01*
X105999511Y-41320489D02*
X101256000Y-46064000D01*
X133306207Y-41320489D02*
X105999511Y-41320489D01*
%TO.N,Net-(SW2-Pad2)*%
X101637000Y-68090000D02*
X89137000Y-68090000D01*
X143488447Y-41910000D02*
X146050000Y-41910000D01*
X129571064Y-46929511D02*
X138468936Y-46929511D01*
X138468936Y-46929511D02*
X143488447Y-41910000D01*
X124068489Y-46111511D02*
X128753064Y-46111511D01*
X101637000Y-68090000D02*
X102090000Y-68090000D01*
X128753064Y-46111511D02*
X129571064Y-46929511D01*
X102090000Y-68090000D02*
X124068489Y-46111511D01*
%TO.N,Net-(SW3-Pad2)*%
X101764000Y-87345000D02*
X142119000Y-46990000D01*
X142119000Y-46990000D02*
X146050000Y-46990000D01*
X101764000Y-89270000D02*
X89264000Y-89270000D01*
X101764000Y-89270000D02*
X101764000Y-87345000D01*
%TO.N,Net-(SW4-Pad2)*%
X101383000Y-110450000D02*
X88883000Y-110450000D01*
X101383000Y-108346418D02*
X141430489Y-68298929D01*
X101383000Y-110450000D02*
X101383000Y-108346418D01*
X141430489Y-68298929D02*
X141430489Y-50520489D01*
X141430489Y-50520489D02*
X142420978Y-49530000D01*
X142420978Y-49530000D02*
X146050000Y-49530000D01*
%TD*%
M02*
